<svg xmlns="http://www.w3.org/2000/svg" xmlns:xlink="http://www.w3.org/1999/xlink" viewBox="0 0 438.66419 453.17627"><defs><style>.cls-1{fill:#6f8bcd;}.cls-2{fill:#ffd555;}.cls-3{fill:#5e72af;}.cls-4{fill:#de77bb;}.cls-17,.cls-5{fill:#5878c5;}.cls-6{fill:#426c76;}.cls-7{fill:#a4f69e;}.cls-8{fill:#d14c62;}.cls-9{fill:#963f67;}.cls-10{fill:#e34c62;}.cls-11{fill:#58539f;}.cls-12{isolation:isolate;}.cls-13{fill:#ffc0c8;}.cls-14{fill:#fff;}.cls-15{fill:#fbc155;}.cls-16{clip-path:url(#clip-path);}.cls-17{opacity:0.2;mix-blend-mode:multiply;}.cls-18{clip-path:url(#clip-path-2);}.cls-19{fill:#798ec9;}.cls-20{fill:#8b576b;}.cls-21{fill:#47648f;}.cls-22{fill:#ff6f79;}.cls-23{fill:#ffa690;}.cls-24{fill:#91e08d;}.cls-25{fill:#8c4579;}.cls-26{clip-path:url(#clip-path-3);}.cls-27{clip-path:url(#clip-path-4);}.cls-28{fill:#47848f;}.cls-29{fill:#695e68;}.cls-30{fill:#954f62;}.cls-31{clip-path:url(#clip-path-5);}.cls-32{fill:#372936;}.cls-33{clip-path:url(#clip-path-6);}.cls-34{clip-path:url(#clip-path-7);}.cls-35{fill:#a34b70;}.cls-36{fill:#82374f;}.cls-37{fill:#3a4454;}.cls-38{clip-path:url(#clip-path-8);}.cls-39{clip-path:url(#clip-path-9);}.cls-40{clip-path:url(#clip-path-10);}.cls-41{fill:#6661b1;}.cls-42{fill:#57c1ff;}.cls-43{clip-path:url(#clip-path-11);}.cls-44{clip-path:url(#clip-path-12);}.cls-45{clip-path:url(#clip-path-13);}.cls-46{fill:#ff7bc3;}.cls-47{clip-path:url(#clip-path-14);}</style><clipPath id="clip-path"><path class="cls-1" d="M102.86172,125.42105s17.6774-37.2781,37.3078-39.7708,36.2316,11.2582,37.8221,13.9027-3.0216,8.4504-5.1816,8.897-28.1159-3.0646-28.1159-3.0646-7.9384,36.5601-22.7004,41.9194S102.86172,125.42105,102.86172,125.42105Z"/></clipPath><clipPath id="clip-path-2"><path class="cls-2" d="M73.73622,74.81285s-26.9718,28.9506-5.3592,68.0258c25.2579,45.666,77.8305-1.451,77.8305-1.451s-.2458,25.9188.2632,29.3161,9.0616,1.2048,10.8145-1.0484,12.9065-41.7784,5.5433-50.822-50.6064,8.3139-50.6064,8.3139L97.853,79.35745Z"/></clipPath><clipPath id="clip-path-3"><path class="cls-6" d="M328.67712,77.96135s50.9099-27.2845,90.0372,9.8641c-.0489,4.2753-5.0734,7.4248-5.0734,7.4248s-54.315-17.7244-79.5802,10.4928C327.75362,96.40655,328.67712,77.96135,328.67712,77.96135Z"/></clipPath><clipPath id="clip-path-4"><path class="cls-7" d="M296.08762,157.80575c.0122-1.0688-34.5242-24.5593,19.3088-71.4248-20.5037-14.276-22.8692-27.3383-24.409-37.7036-2.0802-14.0026,38.3706-30.2875,40.8645-30.259s4.1817,8.2433,2.3799,10.0043-23.0461,21.116-23.0461,21.116S355.065,72.4,352.73432,93.56985c-1.426,12.9524-9.3312,16.1399-13.602,20.7887-11.0093,11.9835-13.5605,48.2331-13.5605,48.2331Z"/></clipPath><clipPath id="clip-path-5"><path class="cls-8" d="M126.76542,280.69245s-35.9207-25.8941-66.6087,13.5439a7.61,7.61,0,0,0,6.4062,6.3987s45.1034-26.4547,55.3295,5.1352"/></clipPath><clipPath id="clip-path-6"><path class="cls-9" d="M120.27072,345.81635s-16.0253,38.4315-23.0567,47.1234c-8.5235,10.5362-32.9566,34.7188-35.3592,36.3184-5.072,3.377-13.4527-3.6361-12.7718-8.2138.3177-2.1359,26.9289-33.6434,28.2278-36.6766,2.864-6.6881,11.0043-46.0189,11.0043-46.0189Z"/></clipPath><clipPath id="clip-path-7"><path class="cls-10" d="M126.76542,280.69245s-13.7113,14.0363-37.9726,45.6458c-9.3942,12.2396-16.7974,43.7207-16.7974,43.7207s-45.5314-2.5705-47.8009-1.0454-3.5837,8.2652-1.3096,10.7516,40.3582,14.1534,54.8371,10.5726c17.7497-4.3898,41.6373-38.0535,41.6373-38.0535s32.8716-22.4665,36.5254-58.6409A41.03453,41.03453,0,0,0,126.76542,280.69245Z"/></clipPath><clipPath id="clip-path-8"><path class="cls-11" d="M113.883,314.65815s21.5243,22.8348,37.6125-3.77l3.7292-1.031s-1.5174,22.8358-21.6043,26.2617c-16.0607,2.7392-24.0578-16.393-24.0578-16.393"/></clipPath><clipPath id="clip-path-9"><path class="cls-10" d="M146.26952,288.42255s31.2458,20.5733,41.3229-22.4964c6.6474-4.2699,10.285,1.4819,10.285,1.4819s6.6588,64.1754-61.1056,39.3994"/></clipPath><clipPath id="clip-path-10"><path class="cls-11" d="M131.93642,282.84475s-5.7546-10.4928-18.0982-7.6517-31.4405,36.1402-26.6396,44.6592,14.0649,10.449,20.4662,5.648S137.10022,295.06075,131.93642,282.84475Z"/></clipPath><clipPath id="clip-path-11"><path class="cls-3" d="M351.86922,314.16605s-9.492-28.8876,19.9897-49.0916a9.30947,9.30947,0,0,0-7.9534-6.6143s-45.0911,20.8955-29.2002,62.3428"/></clipPath><clipPath id="clip-path-12"><path class="cls-4" d="M285.40462,334.813s-25.5356,12.7404-28.9337,31.4644c-3.8086,20.9852,28.1219,36.6178,28.1219,36.6178s5.9366-1.6198,5.3493-7.5461c-7.3816-6.726-20.6013-28.4314,9.9239-35.0184"/></clipPath><clipPath id="clip-path-13"><path class="cls-5" d="M351.86922,314.16605s-21.425-13.3189-55.1802,13.0183c-.2946-10.2832-4.1079-31.9947-15.7379-35.9035-11.8975-3.9986-42.9504,12.4437-43.7424,14.0181s2.0451,10.5121,5.2789,10.7103,29.9458-4.3969,29.9458-4.3969-.8543,39.1799,10.8152,49.6752c10.6833,9.6084,21.7986-1.0415,21.7986-1.0415s33.3264-22.8452,53.8185-23.9438Z"/></clipPath><clipPath id="clip-path-14"><path class="cls-5" d="M358.86572,336.30225s.3151,22.7332,28.5519,35.5608a10.16392,10.16392,0,0,1-3.2337,9.3903s-38.8928-3.0568-44.4735-43.5966"/></clipPath></defs><title>mans</title><g class="cls-12"><g id="Layer_2" data-name="Layer 2"><g id="OBJECTS"><polyline class="cls-13" points="83.094 70.943 77.687 77.595 95.153 81.06 95.153 74.813"/><polyline class="cls-14" points="156.385 167.81 156.527 176.294 153.778 180.14 148.373 178.355 146.763 175.22 147.541 169.069"/><polygon class="cls-14" points="182.883 101.85 181.238 101.357 176.923 100.221 171.934 106.574 178.319 107.974 182.883 105.038 182.883 101.85"/><path class="cls-13" d="M36.96262,116.40685s.901,5.075,5.4076,4.35c-.3626,1.3673.5758,7.6041-.0272,8.2576s-4.6068,5.0205-5.5673,4.0359.9953-4.0849.9953-4.0849-5.1056,3.2089-5.4308,1.6646,2.3233-2.8712,2.3233-2.8712-3.9339-.0088-3.7746-1.325c.1799-1.4855,4.4462-1.5323,4.4462-1.5323A7.28521,7.28521,0,0,1,36.96262,116.40685Z"/><path class="cls-13" d="M11.05962,103.909s.5208,5.6822,5.0845,5.5898c-.5489,1.3037-.8185,7.0791-1.5064,7.6426s-5.2591,4.3324-6.0736,3.224,1.5527-3.9073,1.5527-3.9073-5.5016,2.4692-5.6093.8946,2.6994-2.5208,2.6994-2.5208-3.8946-.5549-3.5541-1.8362c.3844-1.4461,4.6159-.9003,4.6159-.9003A7.28489,7.28489,0,0,1,11.05962,103.909Z"/><path class="cls-14" d="M13.93212,99.789l-2.8725,4.1201s-.4396,3.3317,1.6581,4.7302c2.25,1.5,3.4264.8596,3.4264.8596l2.6986-4.1096Z"/><path class="cls-14" d="M38.56052,114.06765l-1.5979,2.3392a5.29737,5.29737,0,0,0,2.1679,4.1614c2.1475,1.3209,3.2397.1886,3.2397.1886l1.9083-2.7218Z"/><path class="cls-15" d="M89.09152,84.22515s-44.3686-6.5298-50.8914,30.1095a12.05182,12.05182,0,0,0,6.0739,4.4046s21.5277-19.393,44.8013-8.1768"/><path class="cls-1" d="M102.86172,125.42105s17.6774-37.2781,37.3078-39.7708,36.2316,11.2582,37.8221,13.9027-3.0216,8.4504-5.1816,8.897-28.1159-3.0646-28.1159-3.0646-7.9384,36.5601-22.7004,41.9194S102.86172,125.42105,102.86172,125.42105Z"/><g class="cls-16"><path class="cls-17" d="M100.55142,125.28175c11.187-2.1073,20.1284-10.1869,28.8506-17.5021s18.81-14.5109,30.1905-14.2387a38.16306,38.16306,0,0,1,14.3744,3.71,29.17574,29.17574,0,0,1,9.9654,6.548c2.7015,2.9551,4.3996,7.0476,3.6919,10.9884-.8431,4.695-4.7689,8.1706-8.6919,10.8843a79.56712,79.56712,0,0,1-44.1654,14.0259c-7.7766.0767-15.8478-1.1062-22.3537-5.3671"/></g><path class="cls-13" d="M91.274,37.14115c-6.2513,1.0533-18.5306,19.5059-13.6541,30.2341s23.0261,11.7036,31.2628,4.3889S117.32112,32.75225,91.274,37.14115Z"/><path class="cls-2" d="M73.73622,74.81285s-26.9718,28.9506-5.3592,68.0258c25.2579,45.666,77.8305-1.451,77.8305-1.451s-.2458,25.9188.2632,29.3161,9.0616,1.2048,10.8145-1.0484,12.9065-41.7784,5.5433-50.822-50.6064,8.3139-50.6064,8.3139L97.853,79.35745Z"/><g class="cls-18"><polygon class="cls-19" points="113.97 122.045 75.284 159.49 116.697 171.146 136.288 159.243 140.59 175.857 159.8 173.874 173.486 119.565 140.59 111.382 113.97 122.045"/><polygon class="cls-20" points="112.01 122.525 75.284 157.011 80.498 160.958 112.222 127.147 112.01 122.525"/><path class="cls-17" d="M54.13162,95.73625a70.3021,70.3021,0,0,0,14.2893,36.0512,51.80389,51.80389,0,0,0,17.3497,14.8646,34.18739,34.18739,0,0,0,22.3585,3.2678c9.853-2.1471,17.8066-9.1901,26.8306-13.6911,2.195-1.0948,4.607-2.0637,7.0358-1.7214a10.23985,10.23985,0,0,1,4.7802,2.2846,19.7412,19.7412,0,0,1,5.619,7.0538,34.48713,34.48713,0,0,1,2.5521,9.5771,138.259,138.259,0,0,1,1.296,30.0199c-4.7122-1.0259-9.5905.1964-14.2544,1.4232-9.0147,2.3711-18.054,4.791-27.307,5.9171-11.6247,1.4148-23.6495.7213-34.6493-3.296s-20.9132-11.5349-26.6701-21.7325c-7.6773-13.5994-7.3286-30.1189-6.7701-45.7257"/></g><path class="cls-21" d="M181.23772,101.357s6.9214-9.6603,10.1236-9.3935-4.4752,16.5208-4.4752,16.5208l-8.5674-.5099A8.07576,8.07576,0,0,0,181.23772,101.357Z"/><path class="cls-21" d="M146.76322,175.22v6.1375s14.924,4.8032,17.4861,3.469-7.7227-8.5327-7.7227-8.5327S150.99832,179.48945,146.76322,175.22Z"/><path class="cls-2" d="M66.64782,97.74875s-34.3271-16.1438-47.7374,8.4937c-6.1326,2.0118-6.5664-5.788-6.5664-5.788s16.3598-44.9354,61.3922-25.6416"/><path class="cls-22" d="M77.071,66.45215s-4.8067-1.9089-6.18-9.1644,3.8911-20.9888,13.7332-23.7354c.2289-9.6133,11.9022-7.7822,15.1066-6.18s13.5043,13.0466,20.1421,11.4444.6866,12.8177-11.9022,10.2999-13.6368-8.2399-13.6368-8.2399-.3253,6.4088-6.2763,7.3244c3.2044,3.2044.6866,8.2399.6866,8.2399l-4.5777-.9155S76.61322,53.80335,77.071,66.45215Z"/><path class="cls-13" d="M85.725,56.606s3.1116-8.601-2.8893-8.3788-7.3344,11.5573-.889,12.8908"/><path class="cls-23" d="M106.23262,56.606c-1.133.0097-3.7225,6.5591-2.547,7.3052s3.5266,1.4091,4.7022,0S108.38782,56.58755,106.23262,56.606Z"/><polyline class="cls-14" points="413.027 92.882 413.641 95.25 418.288 96.827 420.831 92.882 418.025 88.322"/><polygon class="cls-14" points="330.802 20.159 336.447 17.815 338.531 23.286 337.189 25.251 332.539 27.28 330.802 20.159"/><path class="cls-14" d="M380.67652,155.629l5.8794.0446a6.66834,6.66834,0,0,1,1.0395,4.7315c-.4342,2.7789-1.8852,3.3394-1.8852,3.3394h-5.4961"/><path class="cls-14" d="M358.76472,135.30845l5.3374-.7395a7.90709,7.90709,0,0,1,.8245,8.0731c-2.5146.482-5.2935.7425-5.2935.7425"/><polyline class="cls-13" points="298.911 155.804 300.786 163.722 312.293 164.685 315.302 158.304"/><path class="cls-24" d="M298.50372,137.55975c.6954-.7897,59.5744-4.2438,61.5662-3.2068s3.5585,8.9794.2167,10.1598-54.4608,9.3121-54.4608,9.3121S289.74232,147.50955,298.50372,137.55975Z"/><path class="cls-13" d="M364.92662,142.64205s3.6337,6.5254,5.6276,5.9549-.6442-4.9295-.6442-4.9295,10.1852.6032,10.7331-.6861-5.8335-1.7285-5.8335-1.7285,5.811-1.5547,5.3831-3.0502-5.0781-.2189-5.0781-.2189,3.3892-2.4797,2.4628-3.8326-4.5011,1.9394-4.5011,1.9394,1.3437-4.209.1977-4.5866-3.93,3.291-3.93,3.291a4.54394,4.54394,0,0,0-5.2419-.226C365.49232,136.58425,364.92662,142.64205,364.92662,142.64205Z"/><path class="cls-13" d="M308.25882,202.349c6.5018-1.488,18.2727-21.6193,12.4957-32.59s-24.9-10.8869-33.1048-2.701S281.16832,208.54905,308.25882,202.349Z"/><path class="cls-23" d="M284.92562,182.37305c1.1895-.0794,3.5095-7.1166,2.2292-7.8285s-3.7902-1.2647-4.9389.2871S282.66312,182.524,284.92562,182.37305Z"/><path class="cls-25" d="M323.39482,174.57305s2.8525,3.5086,3.0828,11.1218c.4266,14.1023-8.9238,24.6163-8.9238,24.6163l-5.0866-2.6159-7.0892,7.0842s-13.4026,1.3536-21.4549-6.1505a14.13641,14.13641,0,0,1-3.6605-16.3456s12.1667-6.6833,28.0646,1.5079C306.53562,176.69355,323.39482,174.57305,323.39482,174.57305Z"/><path class="cls-6" d="M328.67712,77.96135s50.9099-27.2845,90.0372,9.8641c-.0489,4.2753-5.0734,7.4248-5.0734,7.4248s-54.315-17.7244-79.5802,10.4928C327.75362,96.40655,328.67712,77.96135,328.67712,77.96135Z"/><g class="cls-26"><path class="cls-17" d="M302.12412,88.74225c23.0412-14.2788,52.2623-17.3269,78.3855-10.0908,10.1897,2.8226,20.1019,7.2105,28.1446,14.0744s14.1027,16.3824,15.5067,26.8623c.3913,2.9211-.0057,6.6016-2.7286,7.7296-1.8997.7869-4.0358-.0928-5.9268-.9005-16.5617-7.0733-34.7293-9.198-52.5151-12.0244s-35.9389-6.6185-51.0304-16.4454"/></g><path class="cls-7" d="M296.08762,157.80575c.0122-1.0688-34.5242-24.5593,19.3088-71.4248-20.5037-14.276-22.8692-27.3383-24.409-37.7036-2.0802-14.0026,38.3706-30.2875,40.8645-30.259s4.1817,8.2433,2.3799,10.0043-23.0461,21.116-23.0461,21.116S355.065,72.4,352.73432,93.56985c-1.426,12.9524-9.3312,16.1399-13.602,20.7887-11.0093,11.9835-13.5605,48.2331-13.5605,48.2331Z"/><g class="cls-27"><path class="cls-28" d="M289.06152,38.47985a37.73462,37.73462,0,0,0,.2453,15.7798,54.74856,54.74856,0,0,0,49.5774,43.4617,81.32273,81.32273,0,0,0,22.0702-1.8873c7.3115-1.483,14.8996-3.7071,20.0629-9.092,4.6508-4.8506,6.7187-11.7621,6.752-18.4819s-1.7958-13.3141-4.0728-19.6365c-2.1407-5.944-4.7316-11.8102-8.6272-16.784-9.2542-11.8152-24.6684-17.317-38.7899-20.7102-11.4633-2.7545-24.3886.6385-33.7048,7.6417C296.09342,23.64325,290.83952,30.45705,289.06152,38.47985Z"/><path class="cls-14" d="M311.722,84.52275l-4.329,4.0295s26.1224,14.6972,45.431,10.0231c1.9543-3.0368-.081-6.659-.081-6.659S331.78672,95.56135,311.722,84.52275Z"/><path class="cls-17" d="M293.03262,29.79055c-1.6356,21.3214,10.369,43.0792,29.2781,53.0653,5.1589,2.7246,10.7631,4.6403,15.5878,7.9205-4.2068,3.8434-9.691,5.9088-14.9961,7.9882-8.0941,3.1726-16.2358,6.6578-22.8783,12.2665-13.4274,11.3377-18.7949,29.7841-19.5027,47.3436-11.1112-18.8381-15.475-41.7442-11.1379-63.1806,3.8172-18.8664,7.7904-44.0547,18.6717-59.9327"/></g><path class="cls-29" d="M335.43122,18.45925s2.1914,4.5537,1.7579,6.7922a10.925,10.925,0,0,0,6.7681-3.3087S343.59582.03505,340.537.00005,335.43122,18.45925,335.43122,18.45925Z"/><path class="cls-29" d="M420.74362,90.97245s-2.2993,4.5002-4.3437,5.5097a10.92557,10.92557,0,0,0,6.7297,3.3861s17.2226-13.5448,15.3994-16.0012S420.74362,90.97245,420.74362,90.97245Z"/><path class="cls-7" d="M321.73452,145.17205c.8422-.6305,59.1814,8.0418,60.9188,9.4646s1.6449,9.5177-1.8678,9.989-55.2137-2.034-55.2137-2.034S311.12182,153.11755,321.73452,145.17205Z"/><path class="cls-13" d="M308.54562,179.57905s-1.6335,7.2212,3.5464,8.6242c6.0982,1.6518,5.4672-9.6445-1.3842-10.6517"/><path class="cls-25" d="M315.27612,206.63945a9.2891,9.2891,0,0,1-5.8951,9.3092c1.3297-2.7322,1.5836-10.9214,1.5836-10.9214"/><path class="cls-25" d="M280.26262,192.28335s5.0568-6.8778,16.6241-6.1013c-5.533,1.824-10.5589,9.2117-10.5589,9.2117"/><path class="cls-13" d="M385.71022,163.74445s2.2209,7.1311,4.2894,6.9808.3786-4.957.3786-4.957,9.846,2.6755,10.6463,1.5257-5.3562-2.8861-5.3562-2.8861,6.0062-.3322,5.8935-1.8836-4.9257-1.2539-4.9257-1.2539,3.825-1.7333,3.1952-3.2472-4.8028.9769-4.8028.9769,2.1769-3.8447,1.1325-4.449-4.5205,2.4168-4.5205,2.4168a4.54405,4.54405,0,0,0-5.0846-1.2943C387.504,157.93075,385.71022,163.74445,385.71022,163.74445Z"/><path class="cls-30" d="M196.90632,267.378s5.8818-12.9679,4.7808-16.0567-11.6356-7.0993-12.81-6.7878.8334,2.488.8334,2.488-2.2095.4127-2.3049,1.1965c-.1637,1.3438,2.5238,1.6711,2.5238,1.6711s-1.5656.8668-1.2397,1.7809c.6776,1.9008,2.7994.341,5.5723,1.8152-5.2106,2.6608-6.1544,10.4685-5.8838,11.9788C192.71062,263.719,196.90632,267.378,196.90632,267.378Z"/><polyline class="cls-14" points="51.43 420.316 47.4 426.168 53.768 431.94 58.559 428.496"/><polyline class="cls-14" points="25.775 370.2 17.639 370.539 16.972 377.797 23.837 379.178"/><polyline class="cls-30" points="136.92 272.347 133.961 280.105 149.528 288.423 150.8 278.268"/><path class="cls-30" d="M65.91122,299.79665s2.9859,9.3697,1.7141,12.1408c-.8979,1.9565-3.1662-2.9732-3.1662-2.9732s-4.0237,9.8597-5.6179,9.4303.847-6.9535.847-6.9535-3.9575,5.8053-5.2917,5.1723,2.1594-6.4928,2.1594-6.4928-4.4558,3.6454-5.4651,2.0121c-.836-1.3528,3.2614-4.1643,3.2614-4.1643s-4.0928,1.4392-4.3636-.1991,5.1594-3.5251,5.1594-3.5251,3.1572-6.308,5.3388-8.7899A6.436,6.436,0,0,0,65.91122,299.79665Z"/><path class="cls-8" d="M126.76542,280.69245s-35.9207-25.8941-66.6087,13.5439a7.61,7.61,0,0,0,6.4062,6.3987s45.1034-26.4547,55.3295,5.1352"/><g class="cls-31"><path class="cls-17" d="M61.02072,313.73605c6.0065-11.7211,17.1698-19.9348,28.7283-26.2485,7.0315-3.8408,14.4559-7.178,22.3536-8.5263s16.3594-.5692,23.3139,3.4091a21.11909,21.11909,0,0,1,9.1762,9.8292,14.31911,14.31911,0,0,1-.8196,13.1298c-1.6725,2.5749-4.2485,4.4088-6.8139,6.0958a144.88617,144.88617,0,0,1-45.3969,19.711c-10.5408,2.5524-22.5709,3.6441-31.4056-2.6464"/></g><path class="cls-32" d="M168.84132,256.37875c1.9573-.5,3.9815-1.3056,5.1349-2.9642s.9603-4.3597-.8348-5.2864a6.01187,6.01187,0,0,0-5.0117-9.4699,9.1815,9.1815,0,0,0-12.4113-8.7815c-1.8615-1.8779-3.8738-3.8415-6.4573-4.4046s-5.8015.9912-5.9596,3.6306a5.74388,5.74388,0,0,0-8.8786,5.6001c-1.9198-.6922-4.1455.4817-5.1754,2.2435a9.12822,9.12822,0,0,0-.7823,5.9526,4.70507,4.70507,0,0,0-4.4497,3.62,9.28682,9.28682,0,0,0,.7831,6.0368,6.71472,6.71472,0,0,0-2.7403,5.0328c-.3605,3.7952,1.6955,7.5482,4.6754,9.926a21.59213,21.59213,0,0,0,10.5414,4.0715,23.16643,23.16643,0,0,0,10.726-.6891,13.15613,13.15613,0,0,0,7.9397-6.9242"/><path class="cls-30" d="M131.072,253.769c1.6815-6.5052,22.2848-17.7913,33.1693-11.665s10.2616,25.3802,1.7876,33.4117S124.06572,280.87375,131.072,253.769Z"/><path class="cls-9" d="M120.27072,345.81635s-16.0253,38.4315-23.0567,47.1234c-8.5235,10.5362-32.9566,34.7188-35.3592,36.3184-5.072,3.377-13.4527-3.6361-12.7718-8.2138.3177-2.1359,26.9289-33.6434,28.2278-36.6766,2.864-6.6881,11.0043-46.0189,11.0043-46.0189Z"/><g class="cls-33"><path class="cls-17" d="M105.528,379.29175c5.6472-4.1276,11.0887-8.6987,15.1167-14.4173s6.5589-12.7275,5.8545-19.6868a12.69035,12.69035,0,0,0-3.1649-7.7396c-4.2387-4.2902-11.3809-3.0609-17.0703-1.06a96.16061,96.16061,0,0,0-45.2284,32.9223c-4.5084,6.101-12.4216,16.6974-10.8652,24.7599,2.2914,11.8706,14.738,7.0721,22.0995,3.9717A164.71507,164.71507,0,0,0,105.528,379.29175Z"/></g><path class="cls-10" d="M126.76542,280.69245s-13.7113,14.0363-37.9726,45.6458c-9.3942,12.2396-16.7974,43.7207-16.7974,43.7207s-45.5314-2.5705-47.8009-1.0454-3.5837,8.2652-1.3096,10.7516,40.3582,14.1534,54.8371,10.5726c17.7497-4.3898,41.6373-38.0535,41.6373-38.0535s32.8716-22.4665,36.5254-58.6409A41.03453,41.03453,0,0,0,126.76542,280.69245Z"/><g class="cls-34"><path class="cls-35" d="M130.26772,359.08355a123.79937,123.79937,0,0,1-45.1138-31.6247c-3.7868-4.197-7.4589-8.7905-12.5803-11.1833-5.2513,9.1153.2663,21.8267-5.4937,30.6295-2.8118,4.2973-7.8706,6.7091-12.9475,7.4822s-10.2502.1127-15.343-.5479l-24.2318-3.1431c-1.8894-.2451-3.9918-.4392-5.5258.6907-2.1636,1.5936-2.0047,4.8279-1.5414,7.4748a126.57271,126.57271,0,0,0,6.2313,22.7965,33.7015,33.7015,0,0,0,5.4916,10.2536c3.6667,4.2798,9.0486,6.7686,14.5231,8.1073s11.1387,1.6462,16.7355,2.3076c13.233,1.5638,26.9513,5.0841,39.5808.835,8.8321-2.9715,16.1063-9.5308,21.5302-17.1082s9.19-16.1915,12.8735-24.7512"/><path class="cls-2" d="M126.27652,354.35745c-.6184-.5307-34.8326-15.281-41.2248-35.594-3.7706,8.7103-4.1259,11.6269-4.1259,11.6269s15.0247,24.8268,40.9872,26.3955A38.4127,38.4127,0,0,0,126.27652,354.35745Z"/></g><path class="cls-32" d="M169.83832,244.36665a5.26383,5.26383,0,0,1-3.5869,5.496,8.29636,8.29636,0,0,1-6.8367-.9844,3.43529,3.43529,0,0,1-1.3541,4.2824,4.53406,4.53406,0,0,1-4.6807-.169,6.76109,6.76109,0,0,1-2.7609-3.9551,8.53611,8.53611,0,0,1-11.1244-3.5496,4.6,4.6,0,0,1-.4919-3.3617c.5621-1.8454,2.6094-2.7482,4.4611-3.2889,6.9072-2.0168,14.5259-2.1581,21.1608.6269"/><path class="cls-32" d="M134.99772,258.49005c-2.1521.6098-4.7614.4082-6.2168-1.2904a6.42346,6.42346,0,0,1-1.1313-4.8161c.4451-4.7068,4.8324-11.4731,10.395-9.635,4.9668,1.6411,5.2279,6.7827.5683,8.8003C140.88452,254.58265,137.94832,257.65385,134.99772,258.49005Z"/><path class="cls-30" d="M128.55352,251.41645a5.99028,5.99028,0,0,0-.9554,3.5572,7.399,7.399,0,0,0,.2102,1.5282,6.7109,6.7109,0,0,0,2.5106,3.8847C136.02942,264.45415,134.71152,242.33035,128.55352,251.41645Z"/><path class="cls-36" d="M158.77862,258.37565c1.2363.1506,1.7295,7.5761.6991,8.7768s-4.7023.9745-5.0897-.62S157.54222,258.22505,158.77862,258.37565Z"/><path class="cls-37" d="M55.73662,431.08445l-8.84,7.468s2.1396,13.3187-.4268,14.5708-7.4075-20.0892-7.4075-20.0892l8.6516-8.1775A11.10676,11.10676,0,0,0,55.73662,431.08445Z"/><path class="cls-37" d="M18.597,378.76405s-1.7891-5.9029,1.0637-8.7324c-10.8141-1.8189-15.0377-2.835-15.0377-2.835s-6.1018,17.1479-4.2852,18.7069,8.0216-9.5734,8.0216-9.5734Z"/><path class="cls-17" d="M84.65732,347.10455s-6.7815,15.0299-3.0474,18.4972,14.4567-3.4977,15.203-10.6688C91.74522,351.19885,84.65732,347.10455,84.65732,347.10455Z"/><path class="cls-11" d="M128.68972,288.42255s15.8662-10.1548,26.4189,7.0317c2.8384-8.4554-22.1649-26.0651-34.8379-11.7876"/><path class="cls-11" d="M113.883,314.65815s21.5243,22.8348,37.6125-3.77l3.7292-1.031s-1.5174,22.8358-21.6043,26.2617c-16.0607,2.7392-24.0578-16.393-24.0578-16.393"/><g class="cls-38"><path class="cls-17" d="M126.39762,315.49155a4.39427,4.39427,0,0,0,1.7943,3.967,11.01161,11.01161,0,0,0,4.1604,1.7981c5.9827,1.5505,12.4033,1.9281,18.3001.0775s11.1936-6.1399,13.3537-11.9306a7.88483,7.88483,0,0,0,.2991-5.6582c-.9837-2.4091-3.63-3.6805-6.1523-4.3206a24.75633,24.75633,0,0,0-24.1929,7.5388"/></g><path class="cls-10" d="M146.26952,288.42255s31.2458,20.5733,41.3229-22.4964c6.6474-4.2699,10.285,1.4819,10.285,1.4819s6.6588,64.1754-61.1056,39.3994"/><g class="cls-39"><path class="cls-17" d="M213.77772,267.336c-2.2266,12.0535-10.3094,22.6186-20.7041,29.1144s-22.9062,9.1383-35.1597,8.8251c-4.2996-.1099-8.6438-.5647-12.8729.2189s-8.4585,3.0702-10.2808,6.9662c-2.1632,4.625-.2769,10.4005,3.4089,13.9339s8.7918,5.1857,13.8258,6.0395a56.2309,56.2309,0,0,0,65.0493-47.353"/></g><path class="cls-11" d="M131.93642,282.84475s-5.7546-10.4928-18.0982-7.6517-31.4405,36.1402-26.6396,44.6592,14.0649,10.449,20.4662,5.648S137.10022,295.06075,131.93642,282.84475Z"/><g class="cls-40"><path class="cls-17" d="M85.80132,297.73465c-.9064,3.5764-1.8194,7.2101-1.7032,10.8978s1.4013,7.5026,4.223,9.8797c3.0013,2.5284,7.3299,3.0498,11.1434,2.1233a27.18416,27.18416,0,0,0,10.2605-5.5776,64.34794,64.34794,0,0,0,12.4376-13.1946c3.7822-5.3623,6.8592-11.4335,12.0452-15.4541a64.99163,64.99163,0,0,1-29.4909,50.6636c-2.9109,1.8537-6.1713,3.5191-9.618,3.3475-3.796-.1889-7.1919-2.6336-9.4494-5.6913s-3.5589-6.698-4.8298-10.28"/></g><path class="cls-41" d="M117.06012,272.095s-11.5258-.4305-17.5637,7.8832,2.8107,17.7946,2.8107,17.7946,18.9242-3.2162,22.4046-7.0447S128.55082,276.43275,117.06012,272.095Z"/><path class="cls-41" d="M111.649,291.36165s-7.1411,11.7998-8.3832,16.0106,3.5866,5.5112,6.8289,2.0917,11.0779-18.1023,11.0779-18.1023"/><path class="cls-41" d="M100.97972,291.87575s-5.5842,14.767-7.5187,16.4811-3.7178.4452-4.5824-2.9732,9.7704-16.9611,9.7704-16.9611"/><path class="cls-42" d="M381.17172,302.19855a15.8523,15.8523,0,0,1,19.6425,3.9725c3.3333,4.3039,4.1408,10.0389,4.1719,15.4825.0724,12.6649-3.2286,26.2474,2.7654,37.4043,2.4508,4.5618,6.3352,8.3672,7.9701,13.2809,2.6851,8.0698-1.5495,17.0821-7.8586,22.7853-4.8846,4.4155-11.6804,7.5039-18.028,5.7536-5.7352-1.5815-9.7405-6.6296-14.7511-9.8371-7.1962-4.6065-14.8452-.1203-24.3434-8.6543-10.8518-9.7501-14.5269-27.5346-14.8862-34.9638s6.8828-15.1809,12.0728-20.5087c6.5149-6.688,16.5486-8.267,25.8541-9.0283"/><path class="cls-14" d="M386.22252,372.34365l4.5525,2.2539a6.51418,6.51418,0,0,1,.6546,5.9287c-1.339,3.1242-3.3932,1.6366-3.3932,1.6366l-5.0869-2.678"/><path class="cls-14" d="M362.86492,260.01925l5.082-2.4554a5.43673,5.43673,0,0,1,5.1816,5.0603l-4.3096,3.346Z"/><path class="cls-13" d="M241.41772,312.68425s-7.4919,4.2968-9.1977,4.313-9.9216-18.0288-9.9216-18.0288,5.9985-.2323,10.3436,9.079a19.42012,19.42012,0,0,1,6.2445-2.1106S237.90832,310.72285,241.41772,312.68425Z"/><path class="cls-29" d="M234.16712,316.40265s-7.7405-8.7141-5.9998-14.7207c-2.698-3.7606-6.1809-4.2602-7.0176-3.2809s9.3778,19.1406,9.3778,19.1406A2.95719,2.95719,0,0,0,234.16712,316.40265Z"/><path class="cls-13" d="M288.87142,395.45645s7.1201,4.8881,7.8743,6.4183-11.9445,16.7572-11.9445,16.7572-2.8101-5.3047,3.6967-13.2572a19.42159,19.42159,0,0,1-4.6094-4.7119S288.62552,399.46915,288.87142,395.45645Z"/><path class="cls-29" d="M295.36572,400.378s-4.4965,10.7532-10.6639,11.7889c-2.219,4.0617-1.1591,7.4168.0861,7.7462s13.1822-16.7492,13.1822-16.7492A2.95727,2.95727,0,0,0,295.36572,400.378Z"/><path class="cls-3" d="M351.86922,314.16605s-9.492-28.8876,19.9897-49.0916a9.30947,9.30947,0,0,0-7.9534-6.6143s-45.0911,20.8955-29.2002,62.3428"/><g class="cls-43"><path class="cls-17" d="M340.77732,255.13385a57.33366,57.33366,0,0,0,13.4839,75.213c-14.8013,3.1822-29.8988-4.7396-40.992-15.0423-5.7494-5.3397-10.9242-11.5035-13.9135-18.7582s-3.6012-15.7271-.412-22.8963"/></g><path class="cls-4" d="M285.40462,334.813s-25.5356,12.7404-28.9337,31.4644c-3.8086,20.9852,28.1219,36.6178,28.1219,36.6178s5.9366-1.6198,5.3493-7.5461c-7.3816-6.726-20.6013-28.4314,9.9239-35.0184"/><g class="cls-44"><path class="cls-17" d="M244.55032,339.63685a115.15071,115.15071,0,0,0,27.1666,21.6805c10.5398,6.0594,23.7342,10.3977,34.6227,4.9899a7.02757,7.02757,0,0,0,3.3337-2.8542c.9621-1.9037.3314-4.1975-.4093-6.1979-4.4126-11.9154-12.5902-22.7682-23.8894-28.5802s-25.8328-5.8923-36.2458,1.3892"/></g><path class="cls-13" d="M393.84492,322.808c-1.2567,5.7731-18.9772,16.3894-28.7492,11.376s-9.8783-21.9528-2.7051-29.2976S399.08092,298.75365,393.84492,322.808Z"/><path class="cls-13" d="M390.775,374.59755s1.7918,5.8053-2.7386,7.5653c1.0692,1.0609,3.677,6.6374,4.5827,6.9132s6.9347,2.1322,7.287.7106-3.1133-3.2169-3.1133-3.2169,6.4178.1995,5.8852-1.3942-3.6799-1.387-3.6799-1.387,3.6091-2.1258,2.7542-3.2491c-.9649-1.2678-4.9094.9857-4.9094.9857A7.75678,7.75678,0,0,0,390.775,374.59755Z"/><path class="cls-13" d="M376.60762,322.74055s8.7856-2.715,8.2766,3.3007-11.9555,6.8148-12.9876.2787"/><path class="cls-23" d="M376.38492,308.02285c-.0591,1.0543-6.2705,3.1758-6.9131,2.0485s-1.156-3.3453.2076-4.3774S376.49722,306.01735,376.38492,308.02285Z"/><path class="cls-5" d="M351.86922,314.16605s-21.425-13.3189-55.1802,13.0183c-.2946-10.2832-4.1079-31.9947-15.7379-35.9035-11.8975-3.9986-42.9504,12.4437-43.7424,14.0181s2.0451,10.5121,5.2789,10.7103,29.9458-4.3969,29.9458-4.3969-.8543,39.1799,10.8152,49.6752c10.6833,9.6084,21.7986-1.0415,21.7986-1.0415s33.3264-22.8452,53.8185-23.9438Z"/><g class="cls-45"><path class="cls-46" d="M306.71992,312.91435c-1.5774,1.7868-10.0309,14.27-10.0309,14.27s-6.7971,21.1671,13.1723,36.7796c-25.4074,26.453-51.7486-38.1485-51.7486-38.1485s-50.7223-11.2743-28.6229-29.6816,62.683-9.4884,62.683-9.4884Z"/><path class="cls-17" d="M274.088,306.01545c3.828,1.3004,6.1606,5.3025,6.9073,9.2758s.2492,8.0597.2692,12.1024c.049,9.913,4.2861,20.8447,13.4747,24.5645,6.3702,2.5789,13.6449,1.1317,20.1213-1.1673s12.7641-5.4388,19.5882-6.252c-2.8387,16.2588-17.0729,29.8534-33.445,31.942s-33.5634-7.497-40.3931-22.5225c-2.9389-6.4659-4.8826-12.5449-8.8954-18.4603-2.6198-3.8621-5.3792-7.8757-4.6572-12.8058C248.46632,313.07535,265.007,302.93065,274.088,306.01545Z"/></g><path class="cls-42" d="M393.39232,302.44045a55.47193,55.47193,0,0,0-11.9518,8.6315,20.94478,20.94478,0,0,0-5.5928,23.2621,32.565,32.565,0,0,0,5.6637,10.1909c5.775-4.0931,11.0088-9.1516,14.3579-15.3876s4.6672-13.7501,2.6123-20.5237"/><path class="cls-5" d="M358.86572,336.30225s.3151,22.7332,28.5519,35.5608a10.16392,10.16392,0,0,1-3.2337,9.3903s-38.8928-3.0568-44.4735-43.5966"/><g class="cls-47"><path class="cls-17" d="M336.44322,344.35615c7.7359,9.771,16.6387,18.792,27.2815,25.2765s23.1599,10.3176,35.5793,9.2804c-6.8533,6.5753-14.3037,13.4616-23.6696,15.0371-6.583,1.1074-13.3285-.5929-19.5516-3.0087a86.20906,86.20906,0,0,1-30.7401-20.4452"/></g><path class="cls-13" d="M367.94692,257.56385s5.5592-7.034,9.9088-8.7644,8.9058-1.9322,9.1837-1.1845c.5264,1.416-3.0275,2.5603-5.1058,2.8697,3.4232.1474,4.4509,1.7081,4.0321,2.4313s-4.196.0657-4.196.0657,3.1529,1.6801,2.3383,2.7535-3.9993-.9315-3.9993-.9315-2.0721,2.068-2.397,3.2962c1.6419-1.3347,2.9285-.9438,3.1898-.1165s-5.3598,4.9759-7.773,4.6408C373.12852,262.62415,371.05552,257.75435,367.94692,257.56385Z"/></g></g></g></svg>