<svg xmlns="http://www.w3.org/2000/svg" xmlns:xlink="http://www.w3.org/1999/xlink" viewBox="0 0 674.8918 519.30972"><defs><style>.cls-1{fill:url(#linear-gradient);}.cls-2{isolation:isolate;}.cls-3{clip-path:url(#clip-path);}.cls-4{fill:#5878c5;opacity:0.2;mix-blend-mode:multiply;}.cls-5{fill:#fff;}</style><linearGradient id="linear-gradient" x1="371.77229" y1="505.2282" x2="300.77217" y2="27.2281" gradientUnits="userSpaceOnUse"><stop offset="0" stop-color="#6debe7"/><stop offset="0.59831" stop-color="#407df0"/><stop offset="1" stop-color="#18fffc"/></linearGradient><clipPath id="clip-path"><path class="cls-1" d="M398.8977,53.90918c32.049,2.2399,64.5701,6.671,93.6681,19.834s54.6317,34.6875,67.2374,61.8884,10.7769,60.1325-8.3096,82.9908c-15.4461,18.4985-42.061,32.2606-43.1487,55.8074-.5433,11.7603,5.8065,22.9529,11.4671,33.7298,15.16,28.862,26.6388,59.8945,27.0974,91.4735s-11.1876,63.8668-36.535,84.6711-65.3713,27.741-96.3016,12.4513c-21.1123-10.4365-37.421-30.101-60.8164-34.2679-31.1151-5.5417-61.6424,4.5022-90.8953,14.6398-35.2294,12.2088-141.4279-9.831-129.4365-132.6295,2.7959-28.6327-30.6444-50.4917-41.3713-77.7738-15.3842-39.1273,9.4973-83.5879,48.3742-103.4039,18.8648-9.6155,40.4352-14.5817,58.9467-24.7301S284.3834,45.90588,398.8977,53.90918Z"/></clipPath></defs><title>background</title><g class="cls-2"><g id="Layer_2" data-name="Layer 2"><g id="OBJECTS"><path class="cls-1" d="M398.8977,53.90918c32.049,2.2399,64.5701,6.671,93.6681,19.834s54.6317,34.6875,67.2374,61.8884,10.7769,60.1325-8.3096,82.9908c-15.4461,18.4985-42.061,32.2606-43.1487,55.8074-.5433,11.7603,5.8065,22.9529,11.4671,33.7298,15.16,28.862,26.6388,59.8945,27.0974,91.4735s-11.1876,63.8668-36.535,84.6711-65.3713,27.741-96.3016,12.4513c-21.1123-10.4365-37.421-30.101-60.8164-34.2679-31.1151-5.5417-61.6424,4.5022-90.8953,14.6398-35.2294,12.2088-141.4279-9.831-129.4365-132.6295,2.7959-28.6327-30.6444-50.4917-41.3713-77.7738-15.3842-39.1273,9.4973-83.5879,48.3742-103.4039,18.8648-9.6155,40.4352-14.5817,58.9467-24.7301S284.3834,45.90588,398.8977,53.90918Z"/><g class="cls-3"><path class="cls-4" d="M50.2274,303.58438c-14.815,23.0985-1.7722,55.95,20.9983,71.2642s51.7859,17.3009,79.226,17.0449c127.607-1.1902,255.6224-40.09,381.2319-17.5683,26.1422,4.6872,52.2658,12.2182,74.4142,26.8755,10.2551,6.7866,19.6775,15.2049,25.9313,25.7933,15.583,26.3842,8.0324,61.7935-11.2035,85.6459-1.975,2.449-4.1844,4.898-7.1276,6.0099-6.3994,2.4177-13.1218-2.2569-18.2833-6.7464-28.2952-24.6118-53.9715-52.5233-85.1762-73.323-58.8004-39.194-135.5938-49.6771-203.0567-28.6433-43.2441,13.4828-81.9418,38.8038-124.7588,53.5871s-94.5916,17.0907-129.3099-12.0036c-30.1311-25.2501-39.4656-72.1773-21.2911-107.0361"/><path class="cls-4" d="M519.5822,294.12108c-41.7712,14.9597-87.3799,15.7442-131.5107,11.1507s-87.5681-14.3599-131.5817-19.9655c-32.9755-4.1997-67.3686-5.9073-98.6063,5.4604-31.3281,11.4005-56.5454,34.8368-80.5984,57.9209-11.8995,11.4201-27.7186,23.8294-43.1399,17.9814-6.0281-2.286-10.7347-7.1042-14.7051-12.1835-26.797-34.2809-25.5906-87.0883,1.7642-120.9256s77.7161-46.242,118.1569-30.186c34.9316,13.8687,60.3121,45.2431,94.4414,60.9832,35.6288,16.4317,77.876,13.9997,114.69.4297s68.9573-37.3764,98.6088-63.0709c20.3047-17.5951,39.7776-36.2746,61.7454-51.7436s46.8952-27.7643,73.6051-30.6705c39.6081-4.3097,94.0372,19.4338,92.404,66.5572-.5768,16.6419-13.9689,23.1804-27.0836,30.1454-19.7496,10.4888-36.4749,24.1617-54.5718,37.1754C570.362,269.60318,546.1809,284.59518,519.5822,294.12108Z"/><path class="cls-4" d="M427.5864,188.74788c-16.6329,10.7487-38.638,16.7967-56.1097,7.4732-10.8991-5.8162-18.3467-16.918-21.6835-28.8127s-2.9225-24.5551-1.0169-36.7611c9.1726-58.7538,55.1426-110.1135,112.5243-125.7172,22.7959-6.1988,47.5758-7.1218,70.1483.5295,24.2153,8.2083,31.3398,19.805,10.8909,36.9465-31.194,26.1488-47.2526,65.9539-69.5874,99.0518C460.4854,159.63618,446.167,176.74038,427.5864,188.74788Z"/></g><path class="cls-5" d="M305.7516,114.68578a1.2531,1.2531,0,1,1-1.2531-1.2531A1.2531,1.2531,0,0,1,305.7516,114.68578Z"/><circle class="cls-5" cx="143.2402" cy="302.92778" r="1.2531"/><circle class="cls-5" cx="114.7346" cy="246.34148" r="1.2531"/><circle class="cls-5" cx="384.4842" cy="145.94858" r="1.2531"/><path class="cls-5" d="M301.5378,120.09688a.67255.67255,0,1,1-.6725-.6725A.67254.67254,0,0,1,301.5378,120.09688Z"/><path class="cls-5" d="M150.0414,229.20208a.67255.67255,0,1,1-.6725-.6726A.67251.67251,0,0,1,150.0414,229.20208Z"/><path class="cls-5" d="M267.8324,98.70308a.67255.67255,0,1,1-.6726-.6725A.67254.67254,0,0,1,267.8324,98.70308Z"/><circle class="cls-5" cx="340.6502" cy="159.45308" r="0.6725"/><path class="cls-5" d="M309.8325,212.46028a.67255.67255,0,1,1-.6725-.6725A.67254.67254,0,0,1,309.8325,212.46028Z"/><path class="cls-5" d="M370.6598,138.86088a.6725.6725,0,1,1-.6725-.6726A.67251.67251,0,0,1,370.6598,138.86088Z"/><path class="cls-5" d="M366.4873,162.98438a.67255.67255,0,1,1-.6725-.6725A.67251.67251,0,0,1,366.4873,162.98438Z"/><circle class="cls-5" cx="365.7202" cy="238.48748" r="1.2531"/><path class="cls-5" d="M451.8453,297.28278a1.2531,1.2531,0,1,1-1.2531-1.2531A1.253,1.253,0,0,1,451.8453,297.28278Z"/><circle class="cls-5" cx="539.2678" cy="180.17478" r="1.2531"/><circle class="cls-5" cx="452.3106" cy="243.89868" r="1.2531"/><path class="cls-5" d="M362.7596,243.89868a.67255.67255,0,1,1-.6726-.6726A.6726.6726,0,0,1,362.7596,243.89868Z"/><path class="cls-5" d="M474.6404,250.89778a.67255.67255,0,1,1-.6726-.6726A.67254.67254,0,0,1,474.6404,250.89778Z"/><path class="cls-5" d="M494.7249,88.093a.67255.67255,0,1,1-.6725-.6726A.67251.67251,0,0,1,494.7249,88.093Z"/><path class="cls-5" d="M530.6127,168.82488a.67255.67255,0,1,1-.6725-.6725A.67251.67251,0,0,1,530.6127,168.82488Z"/><path class="cls-5" d="M490.8627,149.53358a.67255.67255,0,1,1-.6726-.6726A.67254.67254,0,0,1,490.8627,149.53358Z"/><path class="cls-5" d="M390.9866,302.02908a.6725.6725,0,1,1-.6725-.6725A.67254.67254,0,0,1,390.9866,302.02908Z"/><path class="cls-5" d="M407.4307,310.78718a.67255.67255,0,1,1-.6725-.6725A.67254.67254,0,0,1,407.4307,310.78718Z"/><path class="cls-5" d="M436.7678,290.195a.67255.67255,0,1,1-.6725-.6725A.67254.67254,0,0,1,436.7678,290.195Z"/><path class="cls-5" d="M432.5953,314.31848a.67255.67255,0,1,1-.6726-.6725A.67256.67256,0,0,1,432.5953,314.31848Z"/><path class="cls-5" d="M421.1287,340.98658a.67255.67255,0,1,1-.6725-.6725A.67254.67254,0,0,1,421.1287,340.98658Z"/><path class="cls-5" d="M289.9215,112.31928a.67255.67255,0,1,1-.6726-.6725A.67254.67254,0,0,1,289.9215,112.31928Z"/><path class="cls-5" d="M172.8082,237.91678a.6725.6725,0,1,1-.6725-.6725A.67254.67254,0,0,1,172.8082,237.91678Z"/><path class="cls-5" d="M300.8653,86.70308a.67255.67255,0,1,1-.6726-.6725A.6726.6726,0,0,1,300.8653,86.70308Z"/><circle class="cls-5" cx="314.6558" cy="110.28298" r="0.6725"/><path class="cls-5" d="M175.4213,302.92778a.67255.67255,0,1,1-.6726-.6725A.67256.67256,0,0,1,175.4213,302.92778Z"/><path class="cls-5" d="M212.7552,229.87458a.67255.67255,0,1,1-.6726-.6725A.67254.67254,0,0,1,212.7552,229.87458Z"/><path class="cls-5" d="M323.4098,74.26988a.6725.6725,0,1,1-.6725-.6726A.67251.67251,0,0,1,323.4098,74.26988Z"/><path class="cls-5" d="M307.7514,107.40548a1.25307,1.25307,0,1,1,.2595-1.753A1.25322,1.25322,0,0,1,307.7514,107.40548Z"/><path class="cls-5" d="M130.6924,223.20678a1.25311,1.25311,0,1,1,.2595-1.753A1.25315,1.25315,0,0,1,130.6924,223.20678Z"/><path class="cls-5" d="M188.6383,254.628a1.25305,1.25305,0,1,1-1.2531-1.2531A1.25306,1.25306,0,0,1,188.6383,254.628Z"/><path class="cls-5" d="M180.2966,318.88058a1.25305,1.25305,0,1,1-1.2531-1.2531A1.25306,1.25306,0,0,1,180.2966,318.88058Z"/><path class="cls-5" d="M184.4246,260.03918a.67255.67255,0,1,1-.6726-.6726A.67254.67254,0,0,1,184.4246,260.03918Z"/><path class="cls-5" d="M166.6065,314.31848a.67255.67255,0,1,1-.6725-.6725A.67254.67254,0,0,1,166.6065,314.31848Z"/><path class="cls-5" d="M242.5535,465.61248a.67255.67255,0,1,1-.6726-.6726A.6726.6726,0,0,1,242.5535,465.61248Z"/><path class="cls-5" d="M269.5621,407.90548a.6725.6725,0,1,1-.6725-.6725A.67254.67254,0,0,1,269.5621,407.90548Z"/><path class="cls-5" d="M355.3338,312.95068a.6725.6725,0,1,1-.6725-.6725A.67254.67254,0,0,1,355.3338,312.95068Z"/><path class="cls-5" d="M258.8532,422.92268a.67255.67255,0,1,1,.6726.6725A.67256.67256,0,0,1,258.8532,422.92268Z"/><path class="cls-5" d="M172.8082,252.26148a.6725.6725,0,1,1-.6725-.6725A.67254.67254,0,0,1,172.8082,252.26148Z"/><path class="cls-5" d="M198.2151,250.22518a.67255.67255,0,1,1-.6725-.6725A.67254.67254,0,0,1,198.2151,250.22518Z"/><path class="cls-5" d="M190.6381,247.34778a1.25308,1.25308,0,1,1,.2596-1.753A1.253,1.253,0,0,1,190.6381,247.34778Z"/><path class="cls-5" d="M312.7189,244.25358a.67255.67255,0,1,1-.6725-.6725A.67254.67254,0,0,1,312.7189,244.25358Z"/><path class="cls-5" d="M206.9288,302.92778a.67255.67255,0,1,1-.6726-.6725A.67256.67256,0,0,1,206.9288,302.92778Z"/><path class="cls-5" d="M154.8156,387.65528a.67255.67255,0,1,1-.6726-.6725A.67262.67262,0,0,1,154.8156,387.65528Z"/><circle class="cls-5" cx="334.8132" cy="252.96838" r="0.6725"/><path class="cls-5" d="M350.7353,193.051a.67255.67255,0,1,1-.6726-.6726A.67254.67254,0,0,1,350.7353,193.051Z"/><path class="cls-5" d="M375.4327,244.92618a.67255.67255,0,1,1-.6726-.6726A.6726.6726,0,0,1,375.4327,244.92618Z"/><circle class="cls-5" cx="394.1661" cy="70.34528" r="0.6725"/><path class="cls-5" d="M416.1531,289.87888a.67255.67255,0,1,1-.6725-.6725A.67254.67254,0,0,1,416.1531,289.87888Z"/><path class="cls-5" d="M293.3698,238.25828a1.253,1.253,0,1,1,.2596-1.753A1.25312,1.25312,0,0,1,293.3698,238.25828Z"/><path class="cls-5" d="M351.3158,269.67958a1.25305,1.25305,0,1,1-1.2531-1.2531A1.25312,1.25312,0,0,1,351.3158,269.67958Z"/><path class="cls-5" d="M347.1021,275.09068a.67255.67255,0,1,1-.6726-.6725A.67256.67256,0,0,1,347.1021,275.09068Z"/><path class="cls-5" d="M335.4857,267.31308a.6725.6725,0,1,1-.6725-.6725A.6726.6726,0,0,1,335.4857,267.31308Z"/><path class="cls-5" d="M356.0064,237.74438a.67255.67255,0,1,1-.6726-.6725A.67256.67256,0,0,1,356.0064,237.74438Z"/><path class="cls-5" d="M348.4294,234.867a1.25308,1.25308,0,1,1,.2596-1.753A1.253,1.253,0,0,1,348.4294,234.867Z"/><circle class="cls-5" cx="258.2727" cy="449.26008" r="1.2531"/><path class="cls-5" d="M346.523,444.63328a1.25305,1.25305,0,1,1-1.253-1.2531A1.253,1.253,0,0,1,346.523,444.63328Z"/><circle class="cls-5" cx="283.8079" cy="421.66958" r="1.2531"/><path class="cls-5" d="M112.3559,222.20048a1.25305,1.25305,0,1,1-1.253-1.2531A1.2531,1.2531,0,0,1,112.3559,222.20048Z"/><path class="cls-5" d="M281.3467,447.51158a1.25313,1.25313,0,1,1,.8753,1.541A1.25321,1.25321,0,0,1,281.3467,447.51158Z"/><circle class="cls-5" cx="354.5767" cy="376.78858" r="1.2531"/><path class="cls-5" d="M255.312,454.67128a.67255.67255,0,1,1-.6725-.6725A.67251.67251,0,0,1,255.312,454.67128Z"/><path class="cls-5" d="M267.9851,455.69878a.67255.67255,0,1,1-.6725-.6725A.67251.67251,0,0,1,267.9851,455.69878Z"/><path class="cls-5" d="M215.1618,467.29638a.67255.67255,0,1,1-.6726-.6726A.6726.6726,0,0,1,215.1618,467.29638Z"/><path class="cls-5" d="M288.86,375.05558a.6725.6725,0,1,1-.6725-.6726A.67251.67251,0,0,1,288.86,375.05558Z"/><path class="cls-5" d="M244.1691,252.29588a.67255.67255,0,1,1-.6725-.6726A.67251.67251,0,0,1,244.1691,252.29588Z"/><path class="cls-5" d="M285.7335,260.03918a.67255.67255,0,1,1-.6725-.6726A.67251.67251,0,0,1,285.7335,260.03918Z"/><path class="cls-5" d="M248.5588,448.517a.67255.67255,0,1,1-.6725-.6725A.67254.67254,0,0,1,248.5588,448.517Z"/><path class="cls-5" d="M247.8863,403.79278a.67255.67255,0,1,1-.6726-.6726A.67254.67254,0,0,1,247.8863,403.79278Z"/><path class="cls-5" d="M240.9819,445.63958a1.25311,1.25311,0,1,1,.2595-1.753A1.25315,1.25315,0,0,1,240.9819,445.63958Z"/><circle class="cls-5" cx="466.715" cy="441.43048" r="1.2531"/><path class="cls-5" d="M463.7543,446.84168a.67255.67255,0,1,1-.6725-.6725A.67251.67251,0,0,1,463.7543,446.84168Z"/><path class="cls-5" d="M402.4664,422.92268a.67255.67255,0,1,1-.6725-.6726A.67251.67251,0,0,1,402.4664,422.92268Z"/><path class="cls-5" d="M436.4805,455.91138a.67255.67255,0,1,1-.6725-.6725A.67251.67251,0,0,1,436.4805,455.91138Z"/><path class="cls-5" d="M476.4274,447.86918a.67255.67255,0,1,1-.6725-.6726A.67251.67251,0,0,1,476.4274,447.86918Z"/><path class="cls-5" d="M494.0524,478.03378a.67255.67255,0,1,1-.6726-.6726A.6726.6726,0,0,1,494.0524,478.03378Z"/><circle class="cls-5" cx="451.0575" cy="472.62258" r="1.2531"/><circle class="cls-5" cx="160.1469" cy="186.73948" r="1.2531"/><circle class="cls-5" cx="502.9951" cy="321.68558" r="1.2531"/><path class="cls-5" d="M448.0968,478.03378a.6725.6725,0,1,1-.6725-.6726A.67251.67251,0,0,1,448.0968,478.03378Z"/><path class="cls-5" d="M436.4805,470.25608a.67255.67255,0,1,1-.6725-.6725A.67254.67254,0,0,1,436.4805,470.25608Z"/><path class="cls-5" d="M457.0012,440.68738a.67255.67255,0,1,1-.6726-.6725A.67262.67262,0,0,1,457.0012,440.68738Z"/><path class="cls-5" d="M449.4242,437.81a1.25311,1.25311,0,1,1,.2596-1.753A1.253,1.253,0,0,1,449.4242,437.81Z"/></g></g></g></svg>