<svg xmlns="http://www.w3.org/2000/svg" xmlns:xlink="http://www.w3.org/1999/xlink" viewBox="0 0 291.0019 385.24168"><defs><style>.cls-1{fill:url(#Degradado_sin_nombre_61);}.cls-2{fill:url(#Degradado_sin_nombre_24);}.cls-3{fill:url(#Degradado_sin_nombre_74);}.cls-4{isolation:isolate;}.cls-5{clip-path:url(#clip-path);}.cls-6{fill:#5878c5;opacity:0.2;mix-blend-mode:multiply;}.cls-7{clip-path:url(#clip-path-2);}.cls-8{clip-path:url(#clip-path-3);}.cls-9{fill:url(#Degradado_sin_nombre_74-3);}.cls-10{fill:url(#Degradado_sin_nombre_74-4);}</style><linearGradient id="Degradado_sin_nombre_61" x1="23.63939" y1="217.88201" x2="40.20086" y2="189.7588" gradientUnits="userSpaceOnUse"><stop offset="0" stop-color="#ff468d"/><stop offset="1" stop-color="#5878c5"/></linearGradient><linearGradient id="Degradado_sin_nombre_24" x1="192.51584" y1="375.35604" x2="215.60087" y2="336.15512" gradientTransform="translate(151.75675 -50.93622) rotate(22.49999)" gradientUnits="userSpaceOnUse"><stop offset="0" stop-color="#17c2ff"/><stop offset="1" stop-color="#a4f69e"/></linearGradient><linearGradient id="Degradado_sin_nombre_74" x1="231.47191" y1="56.91559" x2="252.75064" y2="20.78197" gradientTransform="matrix(-0.70713, -0.70709, -0.70709, 0.70713, 440.48277, 182.7383)" gradientUnits="userSpaceOnUse"><stop offset="0" stop-color="#ff3b7e"/><stop offset="1" stop-color="#ffc753"/></linearGradient><clipPath id="clip-path"><circle class="cls-1" cx="31.8175" cy="203.99467" r="16.5651"/></clipPath><clipPath id="clip-path-2"><circle class="cls-2" cx="203.9153" cy="355.9985" r="23.09011" transform="translate(-120.71253 105.13369) rotate(-22.49999)"/></clipPath><clipPath id="clip-path-3"><circle class="cls-3" cx="241.74365" cy="39.26762" r="21.28342" transform="translate(-1.27682 69.64839) rotate(-16.35202)"/></clipPath><linearGradient id="Degradado_sin_nombre_74-3" x1="207.24746" y1="49.90266" x2="211.31832" y2="42.9899" gradientTransform="matrix(1, 0, 0, 1, 0, 0)" xlink:href="#Degradado_sin_nombre_74"/><linearGradient id="Degradado_sin_nombre_74-4" x1="254.33115" y1="74.06227" x2="258.07364" y2="67.7071" gradientTransform="matrix(1, 0, 0, 1, 0, 0)" xlink:href="#Degradado_sin_nombre_74"/></defs><title>planets</title><g class="cls-4"><g id="Layer_2" data-name="Layer 2"><g id="OBJECTS"><circle class="cls-1" cx="31.8175" cy="203.99467" r="16.5651"/><g class="cls-5"><path class="cls-6" d="M0,210.78227a13.01735,13.01735,0,0,1,4.1838-7.902,23.26723,23.26723,0,0,1,7.8147-4.6081,16.32012,16.32012,0,0,1,7.6659-1.2944c4.6687.5701,8.314,4.1755,12.5622,6.1943a23.11791,23.11791,0,0,0,14.1572,1.5395,36.49471,36.49471,0,0,0,13.2131-5.6861c2.2172-1.4715,4.4542-3.3111,5.1072-5.8908a1.69842,1.69842,0,0,0-2.352-.4798,3.4854,3.4854,0,0,0-1.3819,2.238c-.6097,2.5575.1071,5.2776-.4106,7.8553-.7569,3.7686-4.1276,6.6222-7.8232,7.6794s-7.6598.5911-11.3992-.2985a52.1872,52.1872,0,0,1-12.1787-4.5657c-3.062-1.6089-6.0634-3.5584-9.4849-4.0659a13.45612,13.45612,0,0,0-9.3919,2.2909A17.5694,17.5694,0,0,0,4.1702,211.4"/><path class="cls-6" d="M6.3903,211.03077a6.92079,6.92079,0,0,1,3.553-2.3337c7.0729-2.5598,15.6755-2.0961,21.2902,2.9092,2.0065,1.7887,3.6299,4.4875,2.8916,7.072-.6995,2.4487-3.2429,3.8795-5.6846,4.603a21.62657,21.62657,0,0,1-16.5558-1.8715"/><path class="cls-6" d="M8.8862,189.07967a11.80865,11.80865,0,0,1,16.5994,1.1598c1.716,1.9596,2.7474,4.4414,4.4543,6.409a16.41508,16.41508,0,0,0,8.9712,4.8841,17.34132,17.34132,0,0,0,10.0419-.4678,10.66286,10.66286,0,0,0,6.6181-7.2315c.7479-3.3176-.7957-7.1662-3.8773-8.6047-.5508-.2571-1.2826-.406-1.7043.0318a1.44717,1.44717,0,0,0-.3174.9361c-.1117,1.8525.7473,3.616,1.0222,5.4514.4119,2.7511-.7938,5.8966-3.3497,6.9944a9.24143,9.24143,0,0,1-5.1767.1999c-2.2699-.3842-4.7434-1.059-6.0003-2.9878a10.6452,10.6452,0,0,1-1.166-4.6628c-.3062-2.5779-1.0031-5.2455-2.8-7.1192a10.06829,10.06829,0,0,0-4.9378-2.6358,15.33529,15.33529,0,0,0-11.8135,2.0028"/><path class="cls-6" d="M19.3872,217.76a5.0679,5.0679,0,0,0,1.705,1.672c1.6821,1.1537,3.7522,2.1428,5.7026,1.5459a3.91088,3.91088,0,0,0,2.2581-5.6678c-1.2042-2.1251-5.0378-3.7468-7.4202-3.7418C18.751,211.57427,18.2681,215.66767,19.3872,217.76Z"/><path class="cls-6" d="M39.8663,184.72087a16.09127,16.09127,0,0,0-1.6544,3.7628,5.41876,5.41876,0,0,0,.3962,4.0012,3.30591,3.30591,0,0,0,3.4681,1.6594,4.73626,4.73626,0,0,0,2.7303-2.5925,18.08345,18.08345,0,0,0,2.0716-6.4795,6.83741,6.83741,0,0,0-.4824-4.0118"/><path class="cls-6" d="M19.3201,179.00257a32.80915,32.80915,0,0,0,1.5142,22.4187,31.434,31.434,0,0,0,15.9217,15.7944c8.043,3.4944,17.1304,3.3599,25.8975,3.1659a9.18177,9.18177,0,0,1-3.997,1.5198c-11.8099,2.4639-24.251,4.8439-35.7531,1.2045a23.23884,23.23884,0,0,1-6.7769-3.2773c-4.7619-3.4909-7.4444-9.3036-8.1744-15.1627s.3021-11.8005,1.7948-17.5132c1.215-4.6499,2.7987-9.3345,5.8324-13.062"/></g><circle class="cls-2" cx="203.9153" cy="355.9985" r="23.09011" transform="translate(-120.71253 105.13369) rotate(-22.49999)"/><g class="cls-7"><path class="cls-6" d="M159.565,365.45977a18.144,18.144,0,0,1,5.8318-11.0146,32.43131,32.43131,0,0,1,10.8929-6.4233c3.4117-1.2928,7.0638-2.2466,10.6854-1.8043,6.5078.7947,11.589,5.8203,17.5105,8.6343a32.22323,32.22323,0,0,0,19.7338,2.1459,50.87192,50.87192,0,0,0,18.4177-7.9258c3.0905-2.0511,6.2086-4.6154,7.1188-8.2112a2.36728,2.36728,0,0,0-3.2784-.6688,4.85772,4.85772,0,0,0-1.9262,3.1195c-.8499,3.5649.1493,7.3564-.5723,10.9496-1.0551,5.2529-5.7535,9.2307-10.9048,10.7042s-10.6769.824-15.8893-.4161a72.73683,72.73683,0,0,1-16.9759-6.3641c-4.2681-2.2426-8.4518-4.96-13.221-5.6674a18.75528,18.75528,0,0,0-13.0913,3.1933,24.48849,24.48849,0,0,0-8.5189,10.6098"/><path class="cls-6" d="M168.4723,365.80607a9.64729,9.64729,0,0,1,4.9526-3.2529c9.859-3.5681,21.8501-2.9218,29.6765,4.0551,2.7967,2.4933,5.0596,6.2551,4.0305,9.8577-.9751,3.4132-4.5202,5.4076-7.9237,6.4161a30.14588,30.14588,0,0,1-23.0772-2.6086"/><path class="cls-6" d="M171.9515,335.20857a16.4597,16.4597,0,0,1,23.1378,1.6166c2.392,2.7315,3.8297,6.1909,6.2089,8.9334,3.1639,3.6472,7.7907,5.7648,12.5049,6.808a24.17223,24.17223,0,0,0,13.9974-.6521c4.4112-1.7357,8.1826-5.4556,9.225-10.08s-1.1091-9.9889-5.4045-11.994c-.7678-.3584-1.7879-.566-2.3757.0443a2.01693,2.01693,0,0,0-.4424,1.3048c-.1558,2.5822,1.0416,5.0404,1.4248,7.5988.5742,3.8346-1.1065,8.2191-4.6691,9.7495-2.2437.9638-4.8082.6862-7.2159.2786-3.164-.5356-6.6118-1.4763-8.3637-4.1648-1.2313-1.8895-1.3594-4.2599-1.6253-6.4994-.4268-3.5934-1.3983-7.3118-3.903-9.9234a14.03244,14.03244,0,0,0-6.8828-3.674,21.37528,21.37528,0,0,0-16.4668,2.7915"/><path class="cls-6" d="M186.5887,375.186a7.06814,7.06814,0,0,0,2.3766,2.3306c2.3447,1.6081,5.2302,2.9868,7.9489,2.1548a5.45139,5.45139,0,0,0,3.1476-7.9003c-1.6786-2.9622-7.0222-5.2227-10.343-5.2157C185.702,366.56367,185.0288,372.26947,186.5887,375.186Z"/><path class="cls-6" d="M215.1345,329.13277a22.4321,22.4321,0,0,0-2.306,5.245,7.554,7.554,0,0,0,.5522,5.5772,4.6083,4.6083,0,0,0,4.8343,2.3131c1.7514-.4273,2.9427-2.0309,3.8057-3.6137a25.20664,25.20664,0,0,0,2.8876-9.0318,9.53084,9.53084,0,0,0-.6724-5.592"/><path class="cls-6" d="M186.4952,321.162a45.73265,45.73265,0,0,0,2.1107,31.2494,43.81547,43.81547,0,0,0,22.1933,22.0158c11.211,4.8709,23.8779,4.6834,36.0984,4.413a12.79994,12.79994,0,0,1-5.5714,2.1185c-16.4618,3.4343-33.8035,6.7519-49.8363,1.6789a32.39208,32.39208,0,0,1-9.4462-4.5683c-6.6376-4.8659-10.3768-12.9682-11.3943-21.1352s.4211-16.4488,2.5018-24.4116c1.6936-6.4815,3.9011-13.0114,8.1297-18.2072"/></g><circle class="cls-3" cx="241.74365" cy="39.26762" r="21.28342" transform="translate(-1.27682 69.64839) rotate(-16.35202)"/><g class="cls-8"><path class="cls-6" d="M276.0069,62.50687a16.72409,16.72409,0,0,0,.1501-11.487,29.894,29.894,0,0,0-5.9729-10.0097,20.96905,20.96905,0,0,0-7.8463-6.1816c-5.6154-2.233-11.9466-.4132-17.9801-.7537a29.70212,29.70212,0,0,1-16.9113-6.9848,46.88964,46.88964,0,0,1-11.3959-14.5504c-1.5936-3.0249-2.9826-6.4771-2.1299-9.7881a2.1821,2.1821,0,0,1,2.9475.9078,4.47776,4.47776,0,0,1,.1796,3.3746c-.8879,3.2594-3.3717,5.8848-4.3758,9.1103-1.4679,4.7154.5749,10.0094,4.0907,13.4778s8.2726,5.3848,13.037,6.6851a67.04825,67.04825,0,0,0,16.5445,2.3539c4.4436.072,9.0287-.2773,13.1992,1.2581a17.28852,17.28852,0,0,1,9.1787,8.3684,22.57255,22.57255,0,0,1,2.2024,12.347"/><path class="cls-6" d="M211.9726,27.04107a10.09474,10.09474,0,0,0,4.2423,8.6047,17.61444,17.61444,0,0,0,9.374,3.118c2.5487.1828,5.3651.1072,7.3121,1.762a2.07227,2.07227,0,0,1,.7674,1.1415c.1514.8229-.4953,1.5605-1.1138,2.1239-6.2415,5.6856-14.5048,8.5008-22.5144,11.1706"/><path class="cls-6" d="M266.401,59.97437a8.892,8.892,0,0,0-2.5687-4.8199c-6.3983-7.2431-16.3837-12.0194-25.7978-9.8342-3.3641.7809-6.857,2.8239-7.6166,6.1929-.7196,3.1919,1.2668,6.3718,3.5742,8.6917a27.78712,27.78712,0,0,0,19.8203,8.0879"/><path class="cls-6" d="M291.0019,35.96027a17.75623,17.75623,0,0,0-22.7405-10.436c-3.6771,1.3488-6.8273,3.8802-10.4981,5.2462-4.8815,1.8164-10.3568,1.4282-15.3592-.0223-4.9114-1.4241-9.6356-3.932-12.914-7.8566S224.5653,13.495,225.97,8.578s6.2161-8.8829,11.3195-8.5595c.9122.0578,1.9853.3888,2.2261,1.2705a2.17549,2.17549,0,0,1-.256,1.4641c-1.188,2.5251-3.5929,4.233-5.2787,6.4569-2.5269,3.3332-3.2033,8.3532-.6221,11.6445,1.6256,2.0728,4.197,3.1363,6.6871,3.9957,3.2723,1.1293,7.0228,2.0219,10.0719.3828,2.1428-1.152,3.49-3.3298,4.9-5.3124,2.2625-3.1811,5.1052-6.1988,8.8271-7.3759a15.13822,15.13822,0,0,1,8.416.0815,23.05876,23.05876,0,0,1,14.1453,11.1591"/><path class="cls-6" d="M243.0839,55.72007a5.2677,5.2677,0,0,1-2.3881.6754c-2.1091.2141-4.4899.0848-5.9714-1.4314a4.06442,4.06442,0,0,1,.7645-6.2945c2.1572-1.3382,6.4616-.9072,8.632.2844C246.7462,50.39527,245.1471,54.36937,243.0839,55.72007Z"/><path class="cls-6" d="M253.209,13.04007a20.67959,20.67959,0,0,1-.4524,5.2618,6.96269,6.96269,0,0,1-2.9114,4.2675,4.24776,4.24776,0,0,1-4.9327-.2652c-1.2279-1.1197-1.4829-2.9433-1.4816-4.605a23.23519,23.23519,0,0,1,1.6555-8.5821,8.78541,8.78541,0,0,1,3.0151-4.2263"/><path class="cls-6" d="M276.3141,45.66017a42.15426,42.15426,0,0,1-26.8824,10.5266,40.38741,40.38741,0,0,1-27.0803-9.8465c-8.4687-7.4315-13.2926-18.0656-17.8719-28.3601a11.79776,11.79776,0,0,0,.4243,5.4778c3.6091,15.0744,7.6615,30.8365,18.1945,42.2084a29.85681,29.85681,0,0,0,7.5225,6.0793c6.6665,3.6206,14.8914,3.5524,22.1003,1.1897s13.5477-6.8183,19.3683-11.6837c4.7377-3.9603,9.3138-8.368,11.9829-13.9363"/></g><path class="cls-9" d="M213.3294,46.48917a4.07175,4.07175,0,1,1-4.0717-4.0718A4.07175,4.07175,0,0,1,213.3294,46.48917Z"/><circle class="cls-10" cx="256.1792" cy="70.92407" r="3.7433"/></g></g></g></svg>