<svg xmlns="http://www.w3.org/2000/svg" xmlns:xlink="http://www.w3.org/1999/xlink" viewBox="0 0 674.8918 519.30972"><defs><style>.cls-1{fill:url(#linear-gradient);}.cls-2{fill:url(#Degradado_sin_nombre_61);}.cls-3{fill:#e34c62;}.cls-4{fill:#58539f;}.cls-5{fill:#5e72af;}.cls-6{fill:#de77bb;}.cls-18,.cls-7{fill:#5878c5;}.cls-8{fill:url(#Degradado_sin_nombre_24);}.cls-9{fill:url(#Degradado_sin_nombre_74);}.cls-10{fill:#6f8bcd;}.cls-11{fill:#ffd555;}.cls-12{fill:#426c76;}.cls-13{fill:#a4f69e;}.cls-14{fill:#d14c62;}.cls-15{fill:#963f67;}.cls-16{isolation:isolate;}.cls-17{clip-path:url(#clip-path);}.cls-18{opacity:0.2;mix-blend-mode:multiply;}.cls-19{clip-path:url(#clip-path-2);}.cls-20{clip-path:url(#clip-path-3);}.cls-21{clip-path:url(#clip-path-4);}.cls-22{fill:url(#Degradado_sin_nombre_74-3);}.cls-23{fill:url(#Degradado_sin_nombre_74-4);}.cls-24{fill:#fff;}.cls-25{fill:#ffc0c8;}.cls-26{fill:#fbc155;}.cls-27{clip-path:url(#clip-path-5);}.cls-28{clip-path:url(#clip-path-6);}.cls-29{fill:#798ec9;}.cls-30{fill:#8b576b;}.cls-31{fill:#47648f;}.cls-32{fill:#ff6f79;}.cls-33{fill:#ffa690;}.cls-34{fill:#91e08d;}.cls-35{fill:#8c4579;}.cls-36{clip-path:url(#clip-path-7);}.cls-37{clip-path:url(#clip-path-8);}.cls-38{fill:#47848f;}.cls-39{fill:#695e68;}.cls-40{fill:#954f62;}.cls-41{clip-path:url(#clip-path-9);}.cls-42{fill:#372936;}.cls-43{clip-path:url(#clip-path-10);}.cls-44{clip-path:url(#clip-path-11);}.cls-45{fill:#a34b70;}.cls-46{fill:#82374f;}.cls-47{fill:#3a4454;}.cls-48{clip-path:url(#clip-path-12);}.cls-49{clip-path:url(#clip-path-13);}.cls-50{clip-path:url(#clip-path-14);}.cls-51{fill:#6661b1;}.cls-52{fill:#57c1ff;}.cls-53{clip-path:url(#clip-path-15);}.cls-54{clip-path:url(#clip-path-16);}.cls-55{clip-path:url(#clip-path-17);}.cls-56{fill:#ff7bc3;}.cls-57{clip-path:url(#clip-path-18);}</style><linearGradient id="linear-gradient" x1="371.77229" y1="505.2282" x2="300.77217" y2="27.2281" gradientUnits="userSpaceOnUse"><stop offset="0" stop-color="#426c76"/><stop offset="0.59831" stop-color="#17c2ff"/><stop offset="1" stop-color="#47848f"/></linearGradient><linearGradient id="Degradado_sin_nombre_61" x1="141.19078" y1="274.16773" x2="157.75226" y2="246.04451" gradientUnits="userSpaceOnUse"><stop offset="0" stop-color="#ff468d"/><stop offset="1" stop-color="#5878c5"/></linearGradient><linearGradient id="Degradado_sin_nombre_24" x1="310.06724" y1="431.64176" x2="333.15227" y2="392.44083" gradientTransform="translate(182.2444 -91.63668) rotate(22.49999)" gradientUnits="userSpaceOnUse"><stop offset="0" stop-color="#17c2ff"/><stop offset="1" stop-color="#a4f69e"/></linearGradient><linearGradient id="Degradado_sin_nombre_74" x1="349.02331" y1="113.20131" x2="370.30203" y2="77.06769" gradientTransform="matrix(-0.70713, -0.70709, -0.70709, 0.70713, 680.95735, 282.34154)" gradientUnits="userSpaceOnUse"><stop offset="0" stop-color="#ff3b7e"/><stop offset="1" stop-color="#ffc753"/></linearGradient><clipPath id="clip-path"><path class="cls-1" d="M398.8977,53.90918c32.049,2.2399,64.5701,6.671,93.6681,19.834s54.6317,34.6875,67.2374,61.8884,10.7769,60.1325-8.3096,82.9908c-15.4461,18.4985-42.061,32.2606-43.1487,55.8074-.5433,11.7603,5.8065,22.9529,11.4671,33.7298,15.16,28.862,26.6388,59.8945,27.0974,91.4735s-11.1876,63.8668-36.535,84.6711-65.3713,27.741-96.3016,12.4513c-21.1123-10.4365-37.421-30.101-60.8164-34.2679-31.1151-5.5417-61.6424,4.5022-90.8953,14.6398-35.2294,12.2088-141.4279-9.831-129.4365-132.6295,2.7959-28.6327-30.6444-50.4917-41.3713-77.7738-15.3842-39.1273,9.4973-83.5879,48.3742-103.4039,18.8648-9.6155,40.4352-14.5817,58.9467-24.7301S284.3834,45.90588,398.8977,53.90918Z"/></clipPath><clipPath id="clip-path-2"><circle class="cls-2" cx="149.3689" cy="260.28038" r="16.5651"/></clipPath><clipPath id="clip-path-3"><circle class="cls-8" cx="321.4667" cy="412.28421" r="23.09011" transform="translate(-133.30407 154.40313) rotate(-22.49999)"/></clipPath><clipPath id="clip-path-4"><circle class="cls-9" cx="359.29505" cy="95.55333" r="21.28342" transform="translate(-12.36844 105.02033) rotate(-16.35202)"/></clipPath><linearGradient id="Degradado_sin_nombre_74-3" x1="324.79886" y1="106.18837" x2="328.86971" y2="99.27562" gradientTransform="matrix(1, 0, 0, 1, 0, 0)" xlink:href="#Degradado_sin_nombre_74"/><linearGradient id="Degradado_sin_nombre_74-4" x1="371.88254" y1="130.34799" x2="375.62504" y2="123.99282" gradientTransform="matrix(1, 0, 0, 1, 0, 0)" xlink:href="#Degradado_sin_nombre_74"/><clipPath id="clip-path-5"><path class="cls-10" d="M213.9646,172.40158s17.6774-37.2781,37.3078-39.7708,36.2316,11.2582,37.8221,13.9027-3.0216,8.4504-5.1816,8.897-28.1159-3.0646-28.1159-3.0646-7.9384,36.5601-22.7004,41.9194S213.9646,172.40158,213.9646,172.40158Z"/></clipPath><clipPath id="clip-path-6"><path class="cls-11" d="M184.8391,121.79338s-26.9718,28.9506-5.3592,68.0258c25.2579,45.666,77.8305-1.451,77.8305-1.451s-.2458,25.9188.2632,29.3161,9.0616,1.2048,10.8145-1.0484,12.9065-41.7784,5.5433-50.822-50.6064,8.3139-50.6064,8.3139L208.9559,126.338Z"/></clipPath><clipPath id="clip-path-7"><path class="cls-12" d="M439.78,124.94188s50.9099-27.2845,90.0372,9.8641c-.0489,4.2753-5.0734,7.4248-5.0734,7.4248s-54.315-17.7244-79.5802,10.4928C438.8565,143.38708,439.78,124.94188,439.78,124.94188Z"/></clipPath><clipPath id="clip-path-8"><path class="cls-13" d="M407.1905,204.78628c.0122-1.0688-34.5242-24.5593,19.3088-71.4248-20.5037-14.276-22.8692-27.3383-24.409-37.7036-2.0802-14.0026,38.3706-30.2875,40.8645-30.259s4.1817,8.2433,2.3799,10.0043-23.0461,21.116-23.0461,21.116,43.8793,22.8614,41.5486,44.0312c-1.426,12.9524-9.3312,16.1399-13.602,20.7887-11.0093,11.9835-13.5605,48.2331-13.5605,48.2331Z"/></clipPath><clipPath id="clip-path-9"><path class="cls-14" d="M237.8683,327.673s-35.9207-25.8941-66.6087,13.5439a7.61,7.61,0,0,0,6.4062,6.3987s45.1034-26.4547,55.3295,5.1352"/></clipPath><clipPath id="clip-path-10"><path class="cls-15" d="M231.3736,392.79688s-16.0253,38.4315-23.0567,47.1234c-8.5235,10.5362-32.9566,34.7188-35.3592,36.3184-5.072,3.377-13.4527-3.6361-12.7718-8.2138.3177-2.1359,26.9289-33.6434,28.2278-36.6766,2.864-6.6881,11.0043-46.0189,11.0043-46.0189Z"/></clipPath><clipPath id="clip-path-11"><path class="cls-3" d="M237.8683,327.673s-13.7113,14.0363-37.9726,45.6458c-9.3942,12.2396-16.7974,43.7207-16.7974,43.7207s-45.5314-2.5705-47.8009-1.0454-3.5837,8.2652-1.3096,10.7516,40.3582,14.1534,54.8371,10.5726c17.7497-4.3898,41.6373-38.0535,41.6373-38.0535s32.8716-22.4665,36.5254-58.6409A41.03453,41.03453,0,0,0,237.8683,327.673Z"/></clipPath><clipPath id="clip-path-12"><path class="cls-4" d="M224.9859,361.63868s21.5243,22.8348,37.6125-3.77l3.7292-1.031s-1.5174,22.8358-21.6043,26.2617c-16.0607,2.7392-24.0578-16.393-24.0578-16.393"/></clipPath><clipPath id="clip-path-13"><path class="cls-3" d="M257.3724,335.40308s31.2458,20.5733,41.3229-22.4964c6.6474-4.2699,10.285,1.4819,10.285,1.4819s6.6588,64.1754-61.1056,39.3994"/></clipPath><clipPath id="clip-path-14"><path class="cls-4" d="M243.0393,329.82528s-5.7546-10.4928-18.0982-7.6517-31.4405,36.1402-26.6396,44.6592,14.0649,10.449,20.4662,5.648S248.2031,342.04128,243.0393,329.82528Z"/></clipPath><clipPath id="clip-path-15"><path class="cls-5" d="M462.9721,361.14658s-9.492-28.8876,19.9897-49.0916a9.30947,9.30947,0,0,0-7.9534-6.6143s-45.0911,20.8955-29.2002,62.3428"/></clipPath><clipPath id="clip-path-16"><path class="cls-6" d="M396.5075,381.79348s-25.5356,12.7404-28.9337,31.4644c-3.8086,20.9852,28.1219,36.6178,28.1219,36.6178s5.9366-1.6198,5.3493-7.5461c-7.3816-6.726-20.6013-28.4314,9.9239-35.0184"/></clipPath><clipPath id="clip-path-17"><path class="cls-7" d="M462.9721,361.14658s-21.425-13.3189-55.1802,13.0183c-.2946-10.2832-4.1079-31.9947-15.7379-35.9035-11.8975-3.9986-42.9504,12.4437-43.7424,14.0181s2.0451,10.5121,5.2789,10.7103,29.9458-4.3969,29.9458-4.3969-.8543,39.1799,10.8152,49.6752c10.6833,9.6084,21.7986-1.0415,21.7986-1.0415s33.3264-22.8452,53.8185-23.9438Z"/></clipPath><clipPath id="clip-path-18"><path class="cls-7" d="M469.9686,383.28278s.3151,22.7332,28.5519,35.5608a10.16392,10.16392,0,0,1-3.2337,9.3903s-38.8928-3.0568-44.4735-43.5966"/></clipPath></defs><title>Asset 2</title><g class="cls-16"><g id="Layer_2" data-name="Layer 2"><g id="OBJECTS"><path class="cls-1" d="M398.8977,53.90918c32.049,2.2399,64.5701,6.671,93.6681,19.834s54.6317,34.6875,67.2374,61.8884,10.7769,60.1325-8.3096,82.9908c-15.4461,18.4985-42.061,32.2606-43.1487,55.8074-.5433,11.7603,5.8065,22.9529,11.4671,33.7298,15.16,28.862,26.6388,59.8945,27.0974,91.4735s-11.1876,63.8668-36.535,84.6711-65.3713,27.741-96.3016,12.4513c-21.1123-10.4365-37.421-30.101-60.8164-34.2679-31.1151-5.5417-61.6424,4.5022-90.8953,14.6398-35.2294,12.2088-141.4279-9.831-129.4365-132.6295,2.7959-28.6327-30.6444-50.4917-41.3713-77.7738-15.3842-39.1273,9.4973-83.5879,48.3742-103.4039,18.8648-9.6155,40.4352-14.5817,58.9467-24.7301S284.3834,45.90588,398.8977,53.90918Z"/><g class="cls-17"><path class="cls-18" d="M50.2274,303.58438c-14.815,23.0985-1.7722,55.95,20.9983,71.2642s51.7859,17.3009,79.226,17.0449c127.607-1.1902,255.6224-40.09,381.2319-17.5683,26.1422,4.6872,52.2658,12.2182,74.4142,26.8755,10.2551,6.7866,19.6775,15.2049,25.9313,25.7933,15.583,26.3842,8.0324,61.7935-11.2035,85.6459-1.975,2.449-4.1844,4.898-7.1276,6.0099-6.3994,2.4177-13.1218-2.2569-18.2833-6.7464-28.2952-24.6118-53.9715-52.5233-85.1762-73.323-58.8004-39.194-135.5938-49.6771-203.0567-28.6433-43.2441,13.4828-81.9418,38.8038-124.7588,53.5871s-94.5916,17.0907-129.3099-12.0036c-30.1311-25.2501-39.4656-72.1773-21.2911-107.0361"/><path class="cls-18" d="M519.5822,294.12108c-41.7712,14.9597-87.3799,15.7442-131.5107,11.1507s-87.5681-14.3599-131.5817-19.9655c-32.9755-4.1997-67.3686-5.9073-98.6063,5.4604-31.3281,11.4005-56.5454,34.8368-80.5984,57.9209-11.8995,11.4201-27.7186,23.8294-43.1399,17.9814-6.0281-2.286-10.7347-7.1042-14.7051-12.1835-26.797-34.2809-25.5906-87.0883,1.7642-120.9256s77.7161-46.242,118.1569-30.186c34.9316,13.8687,60.3121,45.2431,94.4414,60.9832,35.6288,16.4317,77.876,13.9997,114.69.4297s68.9573-37.3764,98.6088-63.0709c20.3047-17.5951,39.7776-36.2746,61.7454-51.7436s46.8952-27.7643,73.6051-30.6705c39.6081-4.3097,94.0372,19.4338,92.404,66.5572-.5768,16.6419-13.9689,23.1804-27.0836,30.1454-19.7496,10.4888-36.4749,24.1617-54.5718,37.1754C570.362,269.60318,546.1809,284.59518,519.5822,294.12108Z"/><path class="cls-18" d="M427.5864,188.74788c-16.6329,10.7487-38.638,16.7967-56.1097,7.4732-10.8991-5.8162-18.3467-16.918-21.6835-28.8127s-2.9225-24.5551-1.0169-36.7611c9.1726-58.7538,55.1426-110.1135,112.5243-125.7172,22.7959-6.1988,47.5758-7.1218,70.1483.5295,24.2153,8.2083,31.3398,19.805,10.8909,36.9465-31.194,26.1488-47.2526,65.9539-69.5874,99.0518C460.4854,159.63618,446.167,176.74038,427.5864,188.74788Z"/></g><circle class="cls-2" cx="149.3689" cy="260.28038" r="16.5651"/><g class="cls-19"><path class="cls-18" d="M117.5514,267.068a13.01735,13.01735,0,0,1,4.1838-7.902,23.26723,23.26723,0,0,1,7.8147-4.6081,16.32012,16.32012,0,0,1,7.6659-1.2944c4.6687.5701,8.314,4.1755,12.5622,6.1943a23.11791,23.11791,0,0,0,14.1572,1.5395,36.49471,36.49471,0,0,0,13.2131-5.6861c2.2172-1.4715,4.4542-3.3111,5.1072-5.8908a1.69842,1.69842,0,0,0-2.352-.4798,3.4854,3.4854,0,0,0-1.3819,2.238c-.6097,2.5575.1071,5.2776-.4106,7.8553-.7569,3.7686-4.1276,6.6222-7.8232,7.6794s-7.6598.5911-11.3992-.2985a52.1872,52.1872,0,0,1-12.1787-4.5657c-3.062-1.6089-6.0634-3.5584-9.4849-4.0659a13.45612,13.45612,0,0,0-9.3919,2.2909,17.5694,17.5694,0,0,0-6.1115,7.6116"/><path class="cls-18" d="M123.9417,267.31648a6.92079,6.92079,0,0,1,3.553-2.3337c7.0729-2.5598,15.6755-2.0961,21.2902,2.9092,2.0065,1.7887,3.6299,4.4875,2.8916,7.072-.6995,2.4487-3.2429,3.8795-5.6846,4.603a21.62657,21.62657,0,0,1-16.5558-1.8715"/><path class="cls-18" d="M126.4376,245.36538a11.80865,11.80865,0,0,1,16.5994,1.1598c1.716,1.9596,2.7474,4.4414,4.4543,6.409a16.41508,16.41508,0,0,0,8.9712,4.8841,17.34132,17.34132,0,0,0,10.0419-.4678,10.66286,10.66286,0,0,0,6.6181-7.2315c.7479-3.3176-.7957-7.1662-3.8773-8.6047-.5508-.2571-1.2826-.406-1.7043.0318a1.44717,1.44717,0,0,0-.3174.9361c-.1117,1.8525.7473,3.616,1.0222,5.4514.4119,2.7511-.7938,5.8966-3.3497,6.9944a9.24143,9.24143,0,0,1-5.1767.1999c-2.2699-.3842-4.7434-1.059-6.0003-2.9878a10.6452,10.6452,0,0,1-1.166-4.6628c-.3062-2.5779-1.0031-5.2455-2.8-7.1192a10.06829,10.06829,0,0,0-4.9378-2.6358,15.33529,15.33529,0,0,0-11.8135,2.0028"/><path class="cls-18" d="M136.9386,274.04568a5.0679,5.0679,0,0,0,1.705,1.672c1.6821,1.1537,3.7522,2.1428,5.7026,1.5459a3.91088,3.91088,0,0,0,2.2581-5.6678c-1.2042-2.1251-5.0378-3.7468-7.4202-3.7418C136.3024,267.86,135.8195,271.95338,136.9386,274.04568Z"/><path class="cls-18" d="M157.4177,241.00658a16.09127,16.09127,0,0,0-1.6544,3.7628,5.41876,5.41876,0,0,0,.3962,4.0012,3.30591,3.30591,0,0,0,3.4681,1.6594,4.73626,4.73626,0,0,0,2.7303-2.5925,18.08345,18.08345,0,0,0,2.0716-6.4795,6.83741,6.83741,0,0,0-.4824-4.0118"/><path class="cls-18" d="M136.8715,235.28828a32.80915,32.80915,0,0,0,1.5142,22.4187,31.434,31.434,0,0,0,15.9217,15.7944c8.043,3.4944,17.1304,3.3599,25.8975,3.1659a9.18177,9.18177,0,0,1-3.997,1.5198c-11.8099,2.4639-24.251,4.8439-35.7531,1.2045a23.23884,23.23884,0,0,1-6.7769-3.2773c-4.7619-3.4909-7.4444-9.3036-8.1744-15.1627s.3021-11.8005,1.7948-17.5132c1.215-4.6499,2.7987-9.3345,5.8324-13.062"/></g><circle class="cls-8" cx="321.4667" cy="412.28421" r="23.09011" transform="translate(-133.30407 154.40313) rotate(-22.49999)"/><g class="cls-20"><path class="cls-18" d="M277.1164,421.74548a18.144,18.144,0,0,1,5.8318-11.0146,32.43131,32.43131,0,0,1,10.8929-6.4233c3.4117-1.2928,7.0638-2.2466,10.6854-1.8043,6.5078.7947,11.589,5.8203,17.5105,8.6343a32.22323,32.22323,0,0,0,19.7338,2.1459,50.87192,50.87192,0,0,0,18.4177-7.9258c3.0905-2.0511,6.2086-4.6154,7.1188-8.2112a2.36728,2.36728,0,0,0-3.2784-.6688,4.85772,4.85772,0,0,0-1.9262,3.1195c-.8499,3.5649.1493,7.3564-.5723,10.9496-1.0551,5.2529-5.7535,9.2307-10.9048,10.7042s-10.6769.824-15.8893-.4161a72.73683,72.73683,0,0,1-16.9759-6.3641c-4.2681-2.2426-8.4518-4.96-13.221-5.6674a18.75528,18.75528,0,0,0-13.0913,3.1933,24.48849,24.48849,0,0,0-8.5189,10.6098"/><path class="cls-18" d="M286.0237,422.09178a9.64729,9.64729,0,0,1,4.9526-3.2529c9.859-3.5681,21.8501-2.9218,29.6765,4.0551,2.7967,2.4933,5.0596,6.2551,4.0305,9.8577-.9751,3.4132-4.5202,5.4076-7.9237,6.4161a30.14588,30.14588,0,0,1-23.0772-2.6086"/><path class="cls-18" d="M289.5029,391.49428a16.4597,16.4597,0,0,1,23.1378,1.6166c2.392,2.7315,3.8297,6.1909,6.2089,8.9334,3.1639,3.6472,7.7907,5.7648,12.5049,6.808a24.17223,24.17223,0,0,0,13.9974-.6521c4.4112-1.7357,8.1826-5.4556,9.225-10.08s-1.1091-9.9889-5.4045-11.994c-.7678-.3584-1.7879-.566-2.3757.0443a2.01693,2.01693,0,0,0-.4424,1.3048c-.1558,2.5822,1.0416,5.0404,1.4248,7.5988.5742,3.8346-1.1065,8.2191-4.6691,9.7495-2.2437.9638-4.8082.6862-7.2159.2786-3.164-.5356-6.6118-1.4763-8.3637-4.1648-1.2313-1.8895-1.3594-4.2599-1.6253-6.4994-.4268-3.5934-1.3983-7.3118-3.903-9.9234a14.03244,14.03244,0,0,0-6.8828-3.674,21.37528,21.37528,0,0,0-16.4668,2.7915"/><path class="cls-18" d="M304.1401,431.47168a7.06814,7.06814,0,0,0,2.3766,2.3306c2.3447,1.6081,5.2302,2.9868,7.9489,2.1548a5.45139,5.45139,0,0,0,3.1476-7.9003c-1.6786-2.9622-7.0222-5.2227-10.343-5.2157C303.2534,422.84938,302.5802,428.55518,304.1401,431.47168Z"/><path class="cls-18" d="M332.6859,385.41848a22.4321,22.4321,0,0,0-2.306,5.245,7.554,7.554,0,0,0,.5522,5.5772,4.6083,4.6083,0,0,0,4.8343,2.3131c1.7514-.4273,2.9427-2.0309,3.8057-3.6137a25.20664,25.20664,0,0,0,2.8876-9.0318,9.53084,9.53084,0,0,0-.6724-5.592"/><path class="cls-18" d="M304.0466,377.44768a45.73265,45.73265,0,0,0,2.1107,31.2494,43.81547,43.81547,0,0,0,22.1933,22.0158c11.211,4.8709,23.8779,4.6834,36.0984,4.413a12.79994,12.79994,0,0,1-5.5714,2.1185c-16.4618,3.4343-33.8035,6.7519-49.8363,1.6789a32.39208,32.39208,0,0,1-9.4462-4.5683c-6.6376-4.8659-10.3768-12.9682-11.3943-21.1352s.4211-16.4488,2.5018-24.4116c1.6936-6.4815,3.9011-13.0114,8.1297-18.2072"/></g><circle class="cls-9" cx="359.29505" cy="95.55333" r="21.28342" transform="translate(-12.36844 105.02033) rotate(-16.35202)"/><g class="cls-21"><path class="cls-18" d="M393.5583,118.79258a16.72409,16.72409,0,0,0,.1501-11.487,29.894,29.894,0,0,0-5.9729-10.0097,20.96905,20.96905,0,0,0-7.8463-6.1816c-5.6154-2.233-11.9466-.4132-17.9801-.7537a29.70212,29.70212,0,0,1-16.9113-6.9848,46.88964,46.88964,0,0,1-11.3959-14.5504c-1.5936-3.0249-2.9826-6.4771-2.1299-9.7881a2.1821,2.1821,0,0,1,2.9475.9078,4.47776,4.47776,0,0,1,.1796,3.3746c-.8879,3.2594-3.3717,5.8848-4.3758,9.1103-1.4679,4.7154.5749,10.0094,4.0907,13.4778s8.2726,5.3848,13.037,6.6851a67.04825,67.04825,0,0,0,16.5445,2.3539c4.4436.072,9.0287-.2773,13.1992,1.2581a17.28852,17.28852,0,0,1,9.1787,8.3684,22.57255,22.57255,0,0,1,2.2024,12.347"/><path class="cls-18" d="M329.524,83.32678a10.09474,10.09474,0,0,0,4.2423,8.6047,17.61444,17.61444,0,0,0,9.374,3.118c2.5487.1828,5.3651.1072,7.3121,1.762a2.07227,2.07227,0,0,1,.7674,1.1415c.1514.8229-.4953,1.5605-1.1138,2.1239-6.2415,5.6856-14.5048,8.5008-22.5144,11.1706"/><path class="cls-18" d="M383.9524,116.26008a8.892,8.892,0,0,0-2.5687-4.8199c-6.3983-7.2431-16.3837-12.0194-25.7978-9.8342-3.3641.7809-6.857,2.8239-7.6166,6.1929-.7196,3.1919,1.2668,6.3718,3.5742,8.6917a27.78712,27.78712,0,0,0,19.8203,8.0879"/><path class="cls-18" d="M408.5533,92.246A17.75623,17.75623,0,0,0,385.8128,81.81c-3.6771,1.3488-6.8273,3.8802-10.4981,5.2462-4.8815,1.8164-10.3568,1.4282-15.3592-.0223-4.9114-1.4241-9.6356-3.932-12.914-7.8566s-4.9248-9.3966-3.5201-14.3136,6.2161-8.8829,11.3195-8.5595c.9122.0578,1.9853.3888,2.2261,1.2705a2.17549,2.17549,0,0,1-.256,1.4641c-1.188,2.5251-3.5929,4.233-5.2787,6.4569-2.5269,3.3332-3.2033,8.3532-.6221,11.6445,1.6256,2.0728,4.197,3.1363,6.6871,3.9957,3.2723,1.1293,7.0228,2.0219,10.0719.3828,2.1428-1.152,3.49-3.3298,4.9-5.3124,2.2625-3.1811,5.1052-6.1988,8.8271-7.3759a15.13822,15.13822,0,0,1,8.416.0815A23.05876,23.05876,0,0,1,403.9576,80.071"/><path class="cls-18" d="M360.6353,112.00578a5.2677,5.2677,0,0,1-2.3881.6754c-2.1091.2141-4.4899.0848-5.9714-1.4314a4.06442,4.06442,0,0,1,.7645-6.2945c2.1572-1.3382,6.4616-.9072,8.632.2844C364.2976,106.681,362.6985,110.65508,360.6353,112.00578Z"/><path class="cls-18" d="M370.7604,69.32578a20.67959,20.67959,0,0,1-.4524,5.2618,6.96269,6.96269,0,0,1-2.9114,4.2675,4.24776,4.24776,0,0,1-4.9327-.2652c-1.2279-1.1197-1.4829-2.9433-1.4816-4.605a23.23519,23.23519,0,0,1,1.6555-8.5821,8.78541,8.78541,0,0,1,3.0151-4.2263"/><path class="cls-18" d="M393.8655,101.94588a42.15426,42.15426,0,0,1-26.8824,10.5266,40.38741,40.38741,0,0,1-27.0803-9.8465c-8.4687-7.4315-13.2926-18.0656-17.8719-28.3601a11.79776,11.79776,0,0,0,.4243,5.4778c3.6091,15.0744,7.6615,30.8365,18.1945,42.2084a29.85681,29.85681,0,0,0,7.5225,6.0793c6.6665,3.6206,14.8914,3.5524,22.1003,1.1897s13.5477-6.8183,19.3683-11.6837c4.7377-3.9603,9.3138-8.368,11.9829-13.9363"/></g><path class="cls-22" d="M330.8808,102.77488a4.07175,4.07175,0,1,1-4.0717-4.0718A4.07175,4.07175,0,0,1,330.8808,102.77488Z"/><circle class="cls-23" cx="373.7306" cy="127.20978" r="3.7433"/><path class="cls-24" d="M305.7516,114.68578a1.2531,1.2531,0,1,1-1.2531-1.2531A1.2531,1.2531,0,0,1,305.7516,114.68578Z"/><circle class="cls-24" cx="143.2402" cy="302.92778" r="1.2531"/><circle class="cls-24" cx="114.7346" cy="246.34148" r="1.2531"/><circle class="cls-24" cx="384.4842" cy="145.94858" r="1.2531"/><path class="cls-24" d="M301.5378,120.09688a.67255.67255,0,1,1-.6725-.6725A.67254.67254,0,0,1,301.5378,120.09688Z"/><path class="cls-24" d="M150.0414,229.20208a.67255.67255,0,1,1-.6725-.6726A.67251.67251,0,0,1,150.0414,229.20208Z"/><path class="cls-24" d="M267.8324,98.70308a.67255.67255,0,1,1-.6726-.6725A.67254.67254,0,0,1,267.8324,98.70308Z"/><circle class="cls-24" cx="340.6502" cy="159.45308" r="0.6725"/><path class="cls-24" d="M309.8325,212.46028a.67255.67255,0,1,1-.6725-.6725A.67254.67254,0,0,1,309.8325,212.46028Z"/><path class="cls-24" d="M370.6598,138.86088a.6725.6725,0,1,1-.6725-.6726A.67251.67251,0,0,1,370.6598,138.86088Z"/><path class="cls-24" d="M366.4873,162.98438a.67255.67255,0,1,1-.6725-.6725A.67251.67251,0,0,1,366.4873,162.98438Z"/><circle class="cls-24" cx="365.7202" cy="238.48748" r="1.2531"/><path class="cls-24" d="M451.8453,297.28278a1.2531,1.2531,0,1,1-1.2531-1.2531A1.253,1.253,0,0,1,451.8453,297.28278Z"/><circle class="cls-24" cx="539.2678" cy="180.17478" r="1.2531"/><circle class="cls-24" cx="452.3106" cy="243.89868" r="1.2531"/><path class="cls-24" d="M362.7596,243.89868a.67255.67255,0,1,1-.6726-.6726A.6726.6726,0,0,1,362.7596,243.89868Z"/><path class="cls-24" d="M474.6404,250.89778a.67255.67255,0,1,1-.6726-.6726A.67254.67254,0,0,1,474.6404,250.89778Z"/><path class="cls-24" d="M494.7249,88.093a.67255.67255,0,1,1-.6725-.6726A.67251.67251,0,0,1,494.7249,88.093Z"/><path class="cls-24" d="M530.6127,168.82488a.67255.67255,0,1,1-.6725-.6725A.67251.67251,0,0,1,530.6127,168.82488Z"/><path class="cls-24" d="M490.8627,149.53358a.67255.67255,0,1,1-.6726-.6726A.67254.67254,0,0,1,490.8627,149.53358Z"/><path class="cls-24" d="M390.9866,302.02908a.6725.6725,0,1,1-.6725-.6725A.67254.67254,0,0,1,390.9866,302.02908Z"/><path class="cls-24" d="M407.4307,310.78718a.67255.67255,0,1,1-.6725-.6725A.67254.67254,0,0,1,407.4307,310.78718Z"/><path class="cls-24" d="M436.7678,290.195a.67255.67255,0,1,1-.6725-.6725A.67254.67254,0,0,1,436.7678,290.195Z"/><path class="cls-24" d="M432.5953,314.31848a.67255.67255,0,1,1-.6726-.6725A.67256.67256,0,0,1,432.5953,314.31848Z"/><path class="cls-24" d="M421.1287,340.98658a.67255.67255,0,1,1-.6725-.6725A.67254.67254,0,0,1,421.1287,340.98658Z"/><path class="cls-24" d="M289.9215,112.31928a.67255.67255,0,1,1-.6726-.6725A.67254.67254,0,0,1,289.9215,112.31928Z"/><path class="cls-24" d="M172.8082,237.91678a.6725.6725,0,1,1-.6725-.6725A.67254.67254,0,0,1,172.8082,237.91678Z"/><path class="cls-24" d="M300.8653,86.70308a.67255.67255,0,1,1-.6726-.6725A.6726.6726,0,0,1,300.8653,86.70308Z"/><circle class="cls-24" cx="314.6558" cy="110.28298" r="0.6725"/><path class="cls-24" d="M175.4213,302.92778a.67255.67255,0,1,1-.6726-.6725A.67256.67256,0,0,1,175.4213,302.92778Z"/><path class="cls-24" d="M212.7552,229.87458a.67255.67255,0,1,1-.6726-.6725A.67254.67254,0,0,1,212.7552,229.87458Z"/><path class="cls-24" d="M323.4098,74.26988a.6725.6725,0,1,1-.6725-.6726A.67251.67251,0,0,1,323.4098,74.26988Z"/><path class="cls-24" d="M307.7514,107.40548a1.25307,1.25307,0,1,1,.2595-1.753A1.25322,1.25322,0,0,1,307.7514,107.40548Z"/><path class="cls-24" d="M130.6924,223.20678a1.25311,1.25311,0,1,1,.2595-1.753A1.25315,1.25315,0,0,1,130.6924,223.20678Z"/><path class="cls-24" d="M188.6383,254.628a1.25305,1.25305,0,1,1-1.2531-1.2531A1.25306,1.25306,0,0,1,188.6383,254.628Z"/><path class="cls-24" d="M180.2966,318.88058a1.25305,1.25305,0,1,1-1.2531-1.2531A1.25306,1.25306,0,0,1,180.2966,318.88058Z"/><path class="cls-24" d="M184.4246,260.03918a.67255.67255,0,1,1-.6726-.6726A.67254.67254,0,0,1,184.4246,260.03918Z"/><path class="cls-24" d="M166.6065,314.31848a.67255.67255,0,1,1-.6725-.6725A.67254.67254,0,0,1,166.6065,314.31848Z"/><path class="cls-24" d="M242.5535,465.61248a.67255.67255,0,1,1-.6726-.6726A.6726.6726,0,0,1,242.5535,465.61248Z"/><path class="cls-24" d="M269.5621,407.90548a.6725.6725,0,1,1-.6725-.6725A.67254.67254,0,0,1,269.5621,407.90548Z"/><path class="cls-24" d="M355.3338,312.95068a.6725.6725,0,1,1-.6725-.6725A.67254.67254,0,0,1,355.3338,312.95068Z"/><path class="cls-24" d="M258.8532,422.92268a.67255.67255,0,1,1,.6726.6725A.67256.67256,0,0,1,258.8532,422.92268Z"/><path class="cls-24" d="M172.8082,252.26148a.6725.6725,0,1,1-.6725-.6725A.67254.67254,0,0,1,172.8082,252.26148Z"/><path class="cls-24" d="M198.2151,250.22518a.67255.67255,0,1,1-.6725-.6725A.67254.67254,0,0,1,198.2151,250.22518Z"/><path class="cls-24" d="M190.6381,247.34778a1.25308,1.25308,0,1,1,.2596-1.753A1.253,1.253,0,0,1,190.6381,247.34778Z"/><path class="cls-24" d="M312.7189,244.25358a.67255.67255,0,1,1-.6725-.6725A.67254.67254,0,0,1,312.7189,244.25358Z"/><path class="cls-24" d="M206.9288,302.92778a.67255.67255,0,1,1-.6726-.6725A.67256.67256,0,0,1,206.9288,302.92778Z"/><path class="cls-24" d="M154.8156,387.65528a.67255.67255,0,1,1-.6726-.6725A.67262.67262,0,0,1,154.8156,387.65528Z"/><circle class="cls-24" cx="334.8132" cy="252.96838" r="0.6725"/><path class="cls-24" d="M350.7353,193.051a.67255.67255,0,1,1-.6726-.6726A.67254.67254,0,0,1,350.7353,193.051Z"/><path class="cls-24" d="M375.4327,244.92618a.67255.67255,0,1,1-.6726-.6726A.6726.6726,0,0,1,375.4327,244.92618Z"/><circle class="cls-24" cx="394.1661" cy="70.34528" r="0.6725"/><path class="cls-24" d="M416.1531,289.87888a.67255.67255,0,1,1-.6725-.6725A.67254.67254,0,0,1,416.1531,289.87888Z"/><path class="cls-24" d="M293.3698,238.25828a1.253,1.253,0,1,1,.2596-1.753A1.25312,1.25312,0,0,1,293.3698,238.25828Z"/><path class="cls-24" d="M351.3158,269.67958a1.25305,1.25305,0,1,1-1.2531-1.2531A1.25312,1.25312,0,0,1,351.3158,269.67958Z"/><path class="cls-24" d="M347.1021,275.09068a.67255.67255,0,1,1-.6726-.6725A.67256.67256,0,0,1,347.1021,275.09068Z"/><path class="cls-24" d="M335.4857,267.31308a.6725.6725,0,1,1-.6725-.6725A.6726.6726,0,0,1,335.4857,267.31308Z"/><path class="cls-24" d="M356.0064,237.74438a.67255.67255,0,1,1-.6726-.6725A.67256.67256,0,0,1,356.0064,237.74438Z"/><path class="cls-24" d="M348.4294,234.867a1.25308,1.25308,0,1,1,.2596-1.753A1.253,1.253,0,0,1,348.4294,234.867Z"/><circle class="cls-24" cx="258.2727" cy="449.26008" r="1.2531"/><path class="cls-24" d="M346.523,444.63328a1.25305,1.25305,0,1,1-1.253-1.2531A1.253,1.253,0,0,1,346.523,444.63328Z"/><circle class="cls-24" cx="283.8079" cy="421.66958" r="1.2531"/><path class="cls-24" d="M112.3559,222.20048a1.25305,1.25305,0,1,1-1.253-1.2531A1.2531,1.2531,0,0,1,112.3559,222.20048Z"/><path class="cls-24" d="M281.3467,447.51158a1.25313,1.25313,0,1,1,.8753,1.541A1.25321,1.25321,0,0,1,281.3467,447.51158Z"/><circle class="cls-24" cx="354.5767" cy="376.78858" r="1.2531"/><path class="cls-24" d="M255.312,454.67128a.67255.67255,0,1,1-.6725-.6725A.67251.67251,0,0,1,255.312,454.67128Z"/><path class="cls-24" d="M267.9851,455.69878a.67255.67255,0,1,1-.6725-.6725A.67251.67251,0,0,1,267.9851,455.69878Z"/><path class="cls-24" d="M215.1618,467.29638a.67255.67255,0,1,1-.6726-.6726A.6726.6726,0,0,1,215.1618,467.29638Z"/><path class="cls-24" d="M288.86,375.05558a.6725.6725,0,1,1-.6725-.6726A.67251.67251,0,0,1,288.86,375.05558Z"/><path class="cls-24" d="M244.1691,252.29588a.67255.67255,0,1,1-.6725-.6726A.67251.67251,0,0,1,244.1691,252.29588Z"/><path class="cls-24" d="M285.7335,260.03918a.67255.67255,0,1,1-.6725-.6726A.67251.67251,0,0,1,285.7335,260.03918Z"/><path class="cls-24" d="M248.5588,448.517a.67255.67255,0,1,1-.6725-.6725A.67254.67254,0,0,1,248.5588,448.517Z"/><path class="cls-24" d="M247.8863,403.79278a.67255.67255,0,1,1-.6726-.6726A.67254.67254,0,0,1,247.8863,403.79278Z"/><path class="cls-24" d="M240.9819,445.63958a1.25311,1.25311,0,1,1,.2595-1.753A1.25315,1.25315,0,0,1,240.9819,445.63958Z"/><circle class="cls-24" cx="466.715" cy="441.43048" r="1.2531"/><path class="cls-24" d="M463.7543,446.84168a.67255.67255,0,1,1-.6725-.6725A.67251.67251,0,0,1,463.7543,446.84168Z"/><path class="cls-24" d="M402.4664,422.92268a.67255.67255,0,1,1-.6725-.6726A.67251.67251,0,0,1,402.4664,422.92268Z"/><path class="cls-24" d="M436.4805,455.91138a.67255.67255,0,1,1-.6725-.6725A.67251.67251,0,0,1,436.4805,455.91138Z"/><path class="cls-24" d="M476.4274,447.86918a.67255.67255,0,1,1-.6725-.6726A.67251.67251,0,0,1,476.4274,447.86918Z"/><path class="cls-24" d="M494.0524,478.03378a.67255.67255,0,1,1-.6726-.6726A.6726.6726,0,0,1,494.0524,478.03378Z"/><circle class="cls-24" cx="451.0575" cy="472.62258" r="1.2531"/><circle class="cls-24" cx="160.1469" cy="186.73948" r="1.2531"/><circle class="cls-24" cx="502.9951" cy="321.68558" r="1.2531"/><path class="cls-24" d="M448.0968,478.03378a.6725.6725,0,1,1-.6725-.6726A.67251.67251,0,0,1,448.0968,478.03378Z"/><path class="cls-24" d="M436.4805,470.25608a.67255.67255,0,1,1-.6725-.6725A.67254.67254,0,0,1,436.4805,470.25608Z"/><path class="cls-24" d="M457.0012,440.68738a.67255.67255,0,1,1-.6726-.6725A.67262.67262,0,0,1,457.0012,440.68738Z"/><path class="cls-24" d="M449.4242,437.81a1.25311,1.25311,0,1,1,.2596-1.753A1.253,1.253,0,0,1,449.4242,437.81Z"/><polyline class="cls-25" points="194.197 117.923 188.79 124.576 206.256 128.041 206.256 121.793"/><polyline class="cls-24" points="267.488 214.79 267.629 223.274 264.881 227.121 259.475 225.335 257.866 222.2 258.644 216.05"/><polygon class="cls-24" points="293.986 148.83 292.341 148.337 288.026 147.202 283.037 153.555 289.422 154.955 293.986 152.018 293.986 148.83"/><path class="cls-25" d="M148.0655,163.38738s.901,5.075,5.4076,4.35c-.3626,1.3673.5758,7.6041-.0272,8.2576s-4.6068,5.0205-5.5673,4.0359.9953-4.0849.9953-4.0849-5.1056,3.2089-5.4308,1.6646,2.3233-2.8712,2.3233-2.8712-3.9339-.0088-3.7746-1.325c.1799-1.4855,4.4462-1.5323,4.4462-1.5323A7.28521,7.28521,0,0,1,148.0655,163.38738Z"/><path class="cls-25" d="M122.1625,150.88958s.5208,5.6822,5.0845,5.5898c-.5489,1.3037-.8185,7.0791-1.5064,7.6426s-5.2591,4.3324-6.0736,3.224,1.5527-3.9073,1.5527-3.9073-5.5016,2.4692-5.6093.8946,2.6994-2.5208,2.6994-2.5208-3.8946-.5549-3.5541-1.8362c.3844-1.4461,4.6159-.9003,4.6159-.9003A7.28489,7.28489,0,0,1,122.1625,150.88958Z"/><path class="cls-24" d="M125.035,146.76948l-2.8725,4.1201s-.4396,3.3317,1.6581,4.7302c2.25,1.5,3.4264.8596,3.4264.8596l2.6986-4.1096Z"/><path class="cls-24" d="M149.6634,161.04818l-1.5979,2.3392a5.29737,5.29737,0,0,0,2.1679,4.1614c2.1475,1.3209,3.2397.1886,3.2397.1886l1.9083-2.7218Z"/><path class="cls-26" d="M200.1944,131.20568s-44.3686-6.5298-50.8914,30.1095a12.05182,12.05182,0,0,0,6.0739,4.4046s21.5277-19.393,44.8013-8.1768"/><path class="cls-10" d="M213.9646,172.40158s17.6774-37.2781,37.3078-39.7708,36.2316,11.2582,37.8221,13.9027-3.0216,8.4504-5.1816,8.897-28.1159-3.0646-28.1159-3.0646-7.9384,36.5601-22.7004,41.9194S213.9646,172.40158,213.9646,172.40158Z"/><g class="cls-27"><path class="cls-18" d="M211.6543,172.26228c11.187-2.1073,20.1284-10.1869,28.8506-17.5021s18.81-14.5109,30.1905-14.2387a38.16306,38.16306,0,0,1,14.3744,3.71,29.17574,29.17574,0,0,1,9.9654,6.548c2.7015,2.9551,4.3996,7.0476,3.6919,10.9884-.8431,4.695-4.7689,8.1706-8.6919,10.8843a79.56712,79.56712,0,0,1-44.1654,14.0259c-7.7766.0767-15.8478-1.1062-22.3537-5.3671"/></g><path class="cls-25" d="M202.3769,84.12168c-6.2513,1.0533-18.5306,19.5059-13.6541,30.2341s23.0261,11.7036,31.2628,4.3889S228.424,79.73278,202.3769,84.12168Z"/><path class="cls-11" d="M184.8391,121.79338s-26.9718,28.9506-5.3592,68.0258c25.2579,45.666,77.8305-1.451,77.8305-1.451s-.2458,25.9188.2632,29.3161,9.0616,1.2048,10.8145-1.0484,12.9065-41.7784,5.5433-50.822-50.6064,8.3139-50.6064,8.3139L208.9559,126.338Z"/><g class="cls-28"><polygon class="cls-29" points="225.072 169.025 186.387 206.471 227.8 218.126 247.391 206.223 251.693 222.838 270.903 220.854 284.589 166.546 251.693 158.362 225.072 169.025"/><polygon class="cls-30" points="223.113 169.506 186.387 203.991 191.6 207.938 223.325 174.128 223.113 169.506"/><path class="cls-18" d="M165.2345,142.71678a70.3021,70.3021,0,0,0,14.2893,36.0512,51.80389,51.80389,0,0,0,17.3497,14.8646,34.18739,34.18739,0,0,0,22.3585,3.2678c9.853-2.1471,17.8066-9.1901,26.8306-13.6911,2.195-1.0948,4.607-2.0637,7.0358-1.7214a10.23985,10.23985,0,0,1,4.7802,2.2846,19.7412,19.7412,0,0,1,5.619,7.0538,34.48713,34.48713,0,0,1,2.5521,9.5771,138.259,138.259,0,0,1,1.296,30.0199c-4.7122-1.0259-9.5905.1964-14.2544,1.4232-9.0147,2.3711-18.054,4.791-27.307,5.9171-11.6247,1.4148-23.6495.7213-34.6493-3.296s-20.9132-11.5349-26.6701-21.7325c-7.6773-13.5994-7.3286-30.1189-6.7701-45.7257"/></g><path class="cls-31" d="M292.3406,148.33748s6.9214-9.6603,10.1236-9.3935-4.4752,16.5208-4.4752,16.5208l-8.5674-.5099A8.07576,8.07576,0,0,0,292.3406,148.33748Z"/><path class="cls-31" d="M257.8661,222.20048v6.1375s14.924,4.8032,17.4861,3.469-7.7227-8.5327-7.7227-8.5327S262.1012,226.47,257.8661,222.20048Z"/><path class="cls-11" d="M177.7507,144.72928s-34.3271-16.1438-47.7374,8.4937c-6.1326,2.0118-6.5664-5.788-6.5664-5.788s16.3598-44.9354,61.3922-25.6416"/><path class="cls-32" d="M188.1739,113.43268s-4.8067-1.9089-6.18-9.1644,3.8911-20.9888,13.7332-23.7354c.2289-9.6133,11.9022-7.7822,15.1066-6.18s13.5043,13.0466,20.1421,11.4444.6866,12.8177-11.9022,10.2999-13.6368-8.2399-13.6368-8.2399-.3253,6.4088-6.2763,7.3244c3.2044,3.2044.6866,8.2399.6866,8.2399l-4.5777-.9155S187.7161,100.78388,188.1739,113.43268Z"/><path class="cls-25" d="M196.8279,103.58648s3.1116-8.601-2.8893-8.3788-7.3344,11.5573-.889,12.8908"/><path class="cls-33" d="M217.3355,103.58648c-1.133.0097-3.7225,6.5591-2.547,7.3052s3.5266,1.4091,4.7022,0S219.4907,103.56808,217.3355,103.58648Z"/><polyline class="cls-24" points="524.13 139.862 524.744 142.231 529.391 143.808 531.933 139.862 529.128 135.303"/><polygon class="cls-24" points="441.905 67.14 447.55 64.795 449.634 70.266 448.292 72.232 443.642 74.261 441.905 67.14"/><path class="cls-24" d="M491.7794,202.60948l5.8794.0446a6.66834,6.66834,0,0,1,1.0395,4.7315c-.4342,2.7789-1.8852,3.3394-1.8852,3.3394H491.317"/><path class="cls-24" d="M469.8676,182.289l5.3374-.7395a7.90709,7.90709,0,0,1,.8245,8.0731c-2.5146.482-5.2935.7425-5.2935.7425"/><polyline class="cls-25" points="410.014 202.785 411.889 210.702 423.396 211.665 426.405 205.285"/><path class="cls-34" d="M409.6066,184.54028c.6954-.7897,59.5744-4.2438,61.5662-3.2068s3.5585,8.9794.2167,10.1598-54.4608,9.3121-54.4608,9.3121S400.8452,194.49008,409.6066,184.54028Z"/><path class="cls-25" d="M476.0295,189.62258s3.6337,6.5254,5.6276,5.9549-.6442-4.9295-.6442-4.9295,10.1852.6032,10.7331-.6861-5.8335-1.7285-5.8335-1.7285,5.811-1.5547,5.3831-3.0502-5.0781-.2189-5.0781-.2189,3.3892-2.4797,2.4628-3.8326-4.5011,1.9394-4.5011,1.9394,1.3437-4.209.1977-4.5866-3.93,3.291-3.93,3.291a4.54394,4.54394,0,0,0-5.2419-.226C476.5952,183.56478,476.0295,189.62258,476.0295,189.62258Z"/><path class="cls-25" d="M419.3617,249.32948c6.5018-1.488,18.2727-21.6193,12.4957-32.59s-24.9-10.8869-33.1048-2.701S392.2712,255.52958,419.3617,249.32948Z"/><path class="cls-33" d="M396.0285,229.35358c1.1895-.0794,3.5095-7.1166,2.2292-7.8285s-3.7902-1.2647-4.9389.2871S393.766,229.50448,396.0285,229.35358Z"/><path class="cls-35" d="M434.4977,221.55358s2.8525,3.5086,3.0828,11.1218c.4266,14.1023-8.9238,24.6163-8.9238,24.6163l-5.0866-2.6159-7.0892,7.0842s-13.4026,1.3536-21.4549-6.1505a14.13641,14.13641,0,0,1-3.6605-16.3456s12.1667-6.6833,28.0646,1.5079C417.6385,223.67408,434.4977,221.55358,434.4977,221.55358Z"/><path class="cls-12" d="M439.78,124.94188s50.9099-27.2845,90.0372,9.8641c-.0489,4.2753-5.0734,7.4248-5.0734,7.4248s-54.315-17.7244-79.5802,10.4928C438.8565,143.38708,439.78,124.94188,439.78,124.94188Z"/><g class="cls-36"><path class="cls-18" d="M413.227,135.72278c23.0412-14.2788,52.2623-17.3269,78.3855-10.0908,10.1897,2.8226,20.1019,7.2105,28.1446,14.0744s14.1027,16.3824,15.5067,26.8623c.3913,2.9211-.0057,6.6016-2.7286,7.7296-1.8997.7869-4.0358-.0928-5.9268-.9005-16.5617-7.0733-34.7293-9.198-52.5151-12.0244s-35.9389-6.6185-51.0304-16.4454"/></g><path class="cls-13" d="M407.1905,204.78628c.0122-1.0688-34.5242-24.5593,19.3088-71.4248-20.5037-14.276-22.8692-27.3383-24.409-37.7036-2.0802-14.0026,38.3706-30.2875,40.8645-30.259s4.1817,8.2433,2.3799,10.0043-23.0461,21.116-23.0461,21.116,43.8793,22.8614,41.5486,44.0312c-1.426,12.9524-9.3312,16.1399-13.602,20.7887-11.0093,11.9835-13.5605,48.2331-13.5605,48.2331Z"/><g class="cls-37"><path class="cls-38" d="M400.1644,85.46038a37.73462,37.73462,0,0,0,.2453,15.7798,54.74856,54.74856,0,0,0,49.5774,43.4617,81.32273,81.32273,0,0,0,22.0702-1.8873c7.3115-1.483,14.8996-3.7071,20.0629-9.092,4.6508-4.8506,6.7187-11.7621,6.752-18.4819s-1.7958-13.3141-4.0728-19.6365c-2.1407-5.944-4.7316-11.8102-8.6272-16.784-9.2542-11.8152-24.6684-17.317-38.7899-20.7102-11.4633-2.7545-24.3886.6385-33.7048,7.6417C407.1963,70.62378,401.9424,77.43758,400.1644,85.46038Z"/><path class="cls-24" d="M422.8249,131.50328l-4.329,4.0295s26.1224,14.6972,45.431,10.0231c1.9543-3.0368-.081-6.659-.081-6.659S442.8896,142.54188,422.8249,131.50328Z"/><path class="cls-18" d="M404.1355,76.77108c-1.6356,21.3214,10.369,43.0792,29.2781,53.0653,5.1589,2.7246,10.7631,4.6403,15.5878,7.9205-4.2068,3.8434-9.691,5.9088-14.9961,7.9882-8.0941,3.1726-16.2358,6.6578-22.8783,12.2665-13.4274,11.3377-18.7949,29.7841-19.5027,47.3436-11.1112-18.8381-15.475-41.7442-11.1379-63.1806,3.8172-18.8664,7.7904-44.0547,18.6717-59.9327"/></g><path class="cls-39" d="M446.5341,65.43978s2.1914,4.5537,1.7579,6.7922a10.925,10.925,0,0,0,6.7681-3.3087s-.3614-21.9077-3.4202-21.9427S446.5341,65.43978,446.5341,65.43978Z"/><path class="cls-39" d="M531.8465,137.953s-2.2993,4.5002-4.3437,5.5097a10.92557,10.92557,0,0,0,6.7297,3.3861s17.2226-13.5448,15.3994-16.0012S531.8465,137.953,531.8465,137.953Z"/><path class="cls-13" d="M432.8374,192.15258c.8422-.6305,59.1814,8.0418,60.9188,9.4646s1.6449,9.5177-1.8678,9.989-55.2137-2.034-55.2137-2.034S422.2247,200.09808,432.8374,192.15258Z"/><path class="cls-25" d="M419.6485,226.55958s-1.6335,7.2212,3.5464,8.6242c6.0982,1.6518,5.4672-9.6445-1.3842-10.6517"/><path class="cls-35" d="M426.379,253.62a9.2891,9.2891,0,0,1-5.8951,9.3092c1.3297-2.7322,1.5836-10.9214,1.5836-10.9214"/><path class="cls-35" d="M391.3655,239.26388s5.0568-6.8778,16.6241-6.1013c-5.533,1.824-10.5589,9.2117-10.5589,9.2117"/><path class="cls-25" d="M496.8131,210.725s2.2209,7.1311,4.2894,6.9808.3786-4.957.3786-4.957,9.846,2.6755,10.6463,1.5257-5.3562-2.8861-5.3562-2.8861,6.0062-.3322,5.8935-1.8836-4.9257-1.2539-4.9257-1.2539,3.825-1.7333,3.1952-3.2472-4.8028.9769-4.8028.9769,2.1769-3.8447,1.1325-4.449-4.5205,2.4168-4.5205,2.4168a4.54405,4.54405,0,0,0-5.0846-1.2943C498.6069,204.91128,496.8131,210.725,496.8131,210.725Z"/><path class="cls-40" d="M308.0092,314.35858s5.8818-12.9679,4.7808-16.0567-11.6356-7.0993-12.81-6.7878.8334,2.488.8334,2.488-2.2095.4127-2.3049,1.1965c-.1637,1.3438,2.5238,1.6711,2.5238,1.6711s-1.5656.8668-1.2397,1.7809c.6776,1.9008,2.7994.341,5.5723,1.8152-5.2106,2.6608-6.1544,10.4685-5.8838,11.9788C303.8135,310.69948,308.0092,314.35858,308.0092,314.35858Z"/><polyline class="cls-24" points="162.532 467.296 158.502 473.149 164.87 478.921 169.662 475.477"/><polyline class="cls-24" points="136.878 417.18 128.741 417.519 128.074 424.778 134.939 426.159"/><polyline class="cls-40" points="248.022 319.328 245.064 327.086 260.631 335.403 261.903 325.248"/><path class="cls-40" d="M177.0141,346.77718s2.9859,9.3697,1.7141,12.1408c-.8979,1.9565-3.1662-2.9732-3.1662-2.9732s-4.0237,9.8597-5.6179,9.4303.847-6.9535.847-6.9535-3.9575,5.8053-5.2917,5.1723,2.1594-6.4928,2.1594-6.4928-4.4558,3.6454-5.4651,2.0121c-.836-1.3528,3.2614-4.1643,3.2614-4.1643s-4.0928,1.4392-4.3636-.1991,5.1594-3.5251,5.1594-3.5251,3.1572-6.308,5.3388-8.7899A6.436,6.436,0,0,0,177.0141,346.77718Z"/><path class="cls-14" d="M237.8683,327.673s-35.9207-25.8941-66.6087,13.5439a7.61,7.61,0,0,0,6.4062,6.3987s45.1034-26.4547,55.3295,5.1352"/><g class="cls-41"><path class="cls-18" d="M172.1236,360.71658c6.0065-11.7211,17.1698-19.9348,28.7283-26.2485,7.0315-3.8408,14.4559-7.178,22.3536-8.5263s16.3594-.5692,23.3139,3.4091a21.11909,21.11909,0,0,1,9.1762,9.8292,14.31911,14.31911,0,0,1-.8196,13.1298c-1.6725,2.5749-4.2485,4.4088-6.8139,6.0958a144.88617,144.88617,0,0,1-45.3969,19.711c-10.5408,2.5524-22.5709,3.6441-31.4056-2.6464"/></g><path class="cls-42" d="M279.9442,303.35928c1.9573-.5,3.9815-1.3056,5.1349-2.9642s.9603-4.3597-.8348-5.2864a6.01187,6.01187,0,0,0-5.0117-9.4699,9.1815,9.1815,0,0,0-12.4113-8.7815c-1.8615-1.8779-3.8738-3.8415-6.4573-4.4046s-5.8015.9912-5.9596,3.6306a5.74388,5.74388,0,0,0-8.8786,5.6001c-1.9198-.6922-4.1455.4817-5.1754,2.2435a9.12822,9.12822,0,0,0-.7823,5.9526,4.70507,4.70507,0,0,0-4.4497,3.62,9.28682,9.28682,0,0,0,.7831,6.0368,6.71472,6.71472,0,0,0-2.7403,5.0328c-.3605,3.7952,1.6955,7.5482,4.6754,9.926a21.59213,21.59213,0,0,0,10.5414,4.0715,23.16643,23.16643,0,0,0,10.726-.6891,13.15613,13.15613,0,0,0,7.9397-6.9242"/><path class="cls-40" d="M242.1749,300.74948c1.6815-6.5052,22.2848-17.7913,33.1693-11.665s10.2616,25.3802,1.7876,33.4117S235.1686,327.85428,242.1749,300.74948Z"/><path class="cls-15" d="M231.3736,392.79688s-16.0253,38.4315-23.0567,47.1234c-8.5235,10.5362-32.9566,34.7188-35.3592,36.3184-5.072,3.377-13.4527-3.6361-12.7718-8.2138.3177-2.1359,26.9289-33.6434,28.2278-36.6766,2.864-6.6881,11.0043-46.0189,11.0043-46.0189Z"/><g class="cls-43"><path class="cls-18" d="M216.6309,426.27228c5.6472-4.1276,11.0887-8.6987,15.1167-14.4173s6.5589-12.7275,5.8545-19.6868a12.69035,12.69035,0,0,0-3.1649-7.7396c-4.2387-4.2902-11.3809-3.0609-17.0703-1.06a96.16061,96.16061,0,0,0-45.2284,32.9223c-4.5084,6.101-12.4216,16.6974-10.8652,24.7599,2.2914,11.8706,14.738,7.0721,22.0995,3.9717A164.71507,164.71507,0,0,0,216.6309,426.27228Z"/></g><path class="cls-3" d="M237.8683,327.673s-13.7113,14.0363-37.9726,45.6458c-9.3942,12.2396-16.7974,43.7207-16.7974,43.7207s-45.5314-2.5705-47.8009-1.0454-3.5837,8.2652-1.3096,10.7516,40.3582,14.1534,54.8371,10.5726c17.7497-4.3898,41.6373-38.0535,41.6373-38.0535s32.8716-22.4665,36.5254-58.6409A41.03453,41.03453,0,0,0,237.8683,327.673Z"/><g class="cls-44"><path class="cls-45" d="M241.3706,406.06408a123.79937,123.79937,0,0,1-45.1138-31.6247c-3.7868-4.197-7.4589-8.7905-12.5803-11.1833-5.2513,9.1153.2663,21.8267-5.4937,30.6295-2.8118,4.2973-7.8706,6.7091-12.9475,7.4822s-10.2502.1127-15.343-.5479l-24.2318-3.1431c-1.8894-.2451-3.9918-.4392-5.5258.6907-2.1636,1.5936-2.0047,4.8279-1.5414,7.4748a126.57271,126.57271,0,0,0,6.2313,22.7965,33.7015,33.7015,0,0,0,5.4916,10.2536c3.6667,4.2798,9.0486,6.7686,14.5231,8.1073s11.1387,1.6462,16.7355,2.3076c13.233,1.5638,26.9513,5.0841,39.5808.835,8.8321-2.9715,16.1063-9.5308,21.5302-17.1082s9.19-16.1915,12.8735-24.7512"/><path class="cls-11" d="M237.3794,401.338c-.6184-.5307-34.8326-15.281-41.2248-35.594-3.7706,8.7103-4.1259,11.6269-4.1259,11.6269s15.0247,24.8268,40.9872,26.3955A38.4127,38.4127,0,0,0,237.3794,401.338Z"/></g><path class="cls-42" d="M280.9412,291.34718a5.26383,5.26383,0,0,1-3.5869,5.496,8.29636,8.29636,0,0,1-6.8367-.9844,3.43529,3.43529,0,0,1-1.3541,4.2824,4.53406,4.53406,0,0,1-4.6807-.169,6.76109,6.76109,0,0,1-2.7609-3.9551,8.53611,8.53611,0,0,1-11.1244-3.5496,4.6,4.6,0,0,1-.4919-3.3617c.5621-1.8454,2.6094-2.7482,4.4611-3.2889,6.9072-2.0168,14.5259-2.1581,21.1608.6269"/><path class="cls-42" d="M246.1006,305.47058c-2.1521.6098-4.7614.4082-6.2168-1.2904a6.42346,6.42346,0,0,1-1.1313-4.8161c.4451-4.7068,4.8324-11.4731,10.395-9.635,4.9668,1.6411,5.2279,6.7827.5683,8.8003C251.9874,301.56318,249.0512,304.63438,246.1006,305.47058Z"/><path class="cls-40" d="M239.6564,298.397a5.99028,5.99028,0,0,0-.9554,3.5572,7.399,7.399,0,0,0,.2102,1.5282,6.7109,6.7109,0,0,0,2.5106,3.8847C247.1323,311.43468,245.8144,289.31088,239.6564,298.397Z"/><path class="cls-46" d="M269.8815,305.35618c1.2363.1506,1.7295,7.5761.6991,8.7768s-4.7023.9745-5.0897-.62S268.6451,305.20558,269.8815,305.35618Z"/><path class="cls-47" d="M166.8395,478.065l-8.84,7.468s2.1396,13.3187-.4268,14.5708-7.4075-20.0892-7.4075-20.0892l8.6516-8.1775A11.10676,11.10676,0,0,0,166.8395,478.065Z"/><path class="cls-47" d="M129.6999,425.74458s-1.7891-5.9029,1.0637-8.7324c-10.8141-1.8189-15.0377-2.835-15.0377-2.835s-6.1018,17.1479-4.2852,18.7069,8.0216-9.5734,8.0216-9.5734Z"/><path class="cls-18" d="M195.7602,394.08508s-6.7815,15.0299-3.0474,18.4972,14.4567-3.4977,15.203-10.6688C202.8481,398.17938,195.7602,394.08508,195.7602,394.08508Z"/><path class="cls-4" d="M239.7926,335.40308s15.8662-10.1548,26.4189,7.0317c2.8384-8.4554-22.1649-26.0651-34.8379-11.7876"/><path class="cls-4" d="M224.9859,361.63868s21.5243,22.8348,37.6125-3.77l3.7292-1.031s-1.5174,22.8358-21.6043,26.2617c-16.0607,2.7392-24.0578-16.393-24.0578-16.393"/><g class="cls-48"><path class="cls-18" d="M237.5005,362.47208a4.39427,4.39427,0,0,0,1.7943,3.967,11.01161,11.01161,0,0,0,4.1604,1.7981c5.9827,1.5505,12.4033,1.9281,18.3001.0775s11.1936-6.1399,13.3537-11.9306a7.88483,7.88483,0,0,0,.2991-5.6582c-.9837-2.4091-3.63-3.6805-6.1523-4.3206a24.75633,24.75633,0,0,0-24.1929,7.5388"/></g><path class="cls-3" d="M257.3724,335.40308s31.2458,20.5733,41.3229-22.4964c6.6474-4.2699,10.285,1.4819,10.285,1.4819s6.6588,64.1754-61.1056,39.3994"/><g class="cls-49"><path class="cls-18" d="M324.8806,314.31648c-2.2266,12.0535-10.3094,22.6186-20.7041,29.1144s-22.9062,9.1383-35.1597,8.8251c-4.2996-.1099-8.6438-.5647-12.8729.2189s-8.4585,3.0702-10.2808,6.9662c-2.1632,4.625-.2769,10.4005,3.4089,13.9339s8.7918,5.1857,13.8258,6.0395a56.2309,56.2309,0,0,0,65.0493-47.353"/></g><path class="cls-4" d="M243.0393,329.82528s-5.7546-10.4928-18.0982-7.6517-31.4405,36.1402-26.6396,44.6592,14.0649,10.449,20.4662,5.648S248.2031,342.04128,243.0393,329.82528Z"/><g class="cls-50"><path class="cls-18" d="M196.9042,344.71518c-.9064,3.5764-1.8194,7.2101-1.7032,10.8978s1.4013,7.5026,4.223,9.8797c3.0013,2.5284,7.3299,3.0498,11.1434,2.1233a27.18416,27.18416,0,0,0,10.2605-5.5776,64.34794,64.34794,0,0,0,12.4376-13.1946c3.7822-5.3623,6.8592-11.4335,12.0452-15.4541a64.99163,64.99163,0,0,1-29.4909,50.6636c-2.9109,1.8537-6.1713,3.5191-9.618,3.3475-3.796-.1889-7.1919-2.6336-9.4494-5.6913s-3.5589-6.698-4.8298-10.28"/></g><path class="cls-51" d="M228.163,319.07548s-11.5258-.4305-17.5637,7.8832,2.8107,17.7946,2.8107,17.7946,18.9242-3.2162,22.4046-7.0447S239.6537,323.41328,228.163,319.07548Z"/><path class="cls-51" d="M222.7519,338.34218s-7.1411,11.7998-8.3832,16.0106,3.5866,5.5112,6.8289,2.0917,11.0779-18.1023,11.0779-18.1023"/><path class="cls-51" d="M212.0826,338.85628s-5.5842,14.767-7.5187,16.4811-3.7178.4452-4.5824-2.9732,9.7704-16.9611,9.7704-16.9611"/><path class="cls-52" d="M492.2746,349.17908a15.8523,15.8523,0,0,1,19.6425,3.9725c3.3333,4.3039,4.1408,10.0389,4.1719,15.4825.0724,12.6649-3.2286,26.2474,2.7654,37.4043,2.4508,4.5618,6.3352,8.3672,7.9701,13.2809,2.6851,8.0698-1.5495,17.0821-7.8586,22.7853-4.8846,4.4155-11.6804,7.5039-18.028,5.7536-5.7352-1.5815-9.7405-6.6296-14.7511-9.8371-7.1962-4.6065-14.8452-.1203-24.3434-8.6543-10.8518-9.7501-14.5269-27.5346-14.8862-34.9638s6.8828-15.1809,12.0728-20.5087c6.5149-6.688,16.5486-8.267,25.8541-9.0283"/><path class="cls-24" d="M497.3254,419.32418l4.5525,2.2539a6.51418,6.51418,0,0,1,.6546,5.9287c-1.339,3.1242-3.3932,1.6366-3.3932,1.6366l-5.0869-2.678"/><path class="cls-24" d="M473.9678,306.99978l5.082-2.4554a5.43673,5.43673,0,0,1,5.1816,5.0603l-4.3096,3.346Z"/><path class="cls-25" d="M352.5206,359.66478s-7.4919,4.2968-9.1977,4.313-9.9216-18.0288-9.9216-18.0288,5.9985-.2323,10.3436,9.079a19.42012,19.42012,0,0,1,6.2445-2.1106S349.0112,357.70338,352.5206,359.66478Z"/><path class="cls-39" d="M345.27,363.38318s-7.7405-8.7141-5.9998-14.7207c-2.698-3.7606-6.1809-4.2602-7.0176-3.2809s9.3778,19.1406,9.3778,19.1406A2.95719,2.95719,0,0,0,345.27,363.38318Z"/><path class="cls-25" d="M399.9743,442.437s7.1201,4.8881,7.8743,6.4183-11.9445,16.7572-11.9445,16.7572-2.8101-5.3047,3.6967-13.2572a19.42159,19.42159,0,0,1-4.6094-4.7119S399.7284,446.44968,399.9743,442.437Z"/><path class="cls-39" d="M406.4686,447.35848s-4.4965,10.7532-10.6639,11.7889c-2.219,4.0617-1.1591,7.4168.0861,7.7462s13.1822-16.7492,13.1822-16.7492A2.95727,2.95727,0,0,0,406.4686,447.35848Z"/><path class="cls-5" d="M462.9721,361.14658s-9.492-28.8876,19.9897-49.0916a9.30947,9.30947,0,0,0-7.9534-6.6143s-45.0911,20.8955-29.2002,62.3428"/><g class="cls-53"><path class="cls-18" d="M451.8802,302.11438a57.33366,57.33366,0,0,0,13.4839,75.213c-14.8013,3.1822-29.8988-4.7396-40.992-15.0423-5.7494-5.3397-10.9242-11.5035-13.9135-18.7582s-3.6012-15.7271-.412-22.8963"/></g><path class="cls-6" d="M396.5075,381.79348s-25.5356,12.7404-28.9337,31.4644c-3.8086,20.9852,28.1219,36.6178,28.1219,36.6178s5.9366-1.6198,5.3493-7.5461c-7.3816-6.726-20.6013-28.4314,9.9239-35.0184"/><g class="cls-54"><path class="cls-18" d="M355.6532,386.61738a115.15071,115.15071,0,0,0,27.1666,21.6805c10.5398,6.0594,23.7342,10.3977,34.6227,4.9899a7.02757,7.02757,0,0,0,3.3337-2.8542c.9621-1.9037.3314-4.1975-.4093-6.1979-4.4126-11.9154-12.5902-22.7682-23.8894-28.5802s-25.8328-5.8923-36.2458,1.3892"/></g><path class="cls-25" d="M504.9478,369.78848c-1.2567,5.7731-18.9772,16.3894-28.7492,11.376s-9.8783-21.9528-2.7051-29.2976S510.1838,345.73418,504.9478,369.78848Z"/><path class="cls-25" d="M501.8779,421.57808s1.7918,5.8053-2.7386,7.5653c1.0692,1.0609,3.677,6.6374,4.5827,6.9132s6.9347,2.1322,7.287.7106-3.1133-3.2169-3.1133-3.2169,6.4178.1995,5.8852-1.3942-3.6799-1.387-3.6799-1.387,3.6091-2.1258,2.7542-3.2491c-.9649-1.2678-4.9094.9857-4.9094.9857A7.75678,7.75678,0,0,0,501.8779,421.57808Z"/><path class="cls-25" d="M487.7105,369.72108s8.7856-2.715,8.2766,3.3007-11.9555,6.8148-12.9876.2787"/><path class="cls-33" d="M487.4878,355.00338c-.0591,1.0543-6.2705,3.1758-6.9131,2.0485s-1.156-3.3453.2076-4.3774S487.6001,352.99788,487.4878,355.00338Z"/><path class="cls-7" d="M462.9721,361.14658s-21.425-13.3189-55.1802,13.0183c-.2946-10.2832-4.1079-31.9947-15.7379-35.9035-11.8975-3.9986-42.9504,12.4437-43.7424,14.0181s2.0451,10.5121,5.2789,10.7103,29.9458-4.3969,29.9458-4.3969-.8543,39.1799,10.8152,49.6752c10.6833,9.6084,21.7986-1.0415,21.7986-1.0415s33.3264-22.8452,53.8185-23.9438Z"/><g class="cls-55"><path class="cls-56" d="M417.8228,359.89488c-1.5774,1.7868-10.0309,14.27-10.0309,14.27s-6.7971,21.1671,13.1723,36.7796c-25.4074,26.453-51.7486-38.1485-51.7486-38.1485s-50.7223-11.2743-28.6229-29.6816,62.683-9.4884,62.683-9.4884Z"/><path class="cls-18" d="M385.1909,352.996c3.828,1.3004,6.1606,5.3025,6.9073,9.2758s.2492,8.0597.2692,12.1024c.049,9.913,4.2861,20.8447,13.4747,24.5645,6.3702,2.5789,13.6449,1.1317,20.1213-1.1673s12.7641-5.4388,19.5882-6.252c-2.8387,16.2588-17.0729,29.8534-33.445,31.942s-33.5634-7.497-40.3931-22.5225c-2.9389-6.4659-4.8826-12.5449-8.8954-18.4603-2.6198-3.8621-5.3792-7.8757-4.6572-12.8058C359.5692,360.05588,376.1099,349.91118,385.1909,352.996Z"/></g><path class="cls-52" d="M504.4952,349.421a55.47193,55.47193,0,0,0-11.9518,8.6315,20.94478,20.94478,0,0,0-5.5928,23.2621,32.565,32.565,0,0,0,5.6637,10.1909c5.775-4.0931,11.0088-9.1516,14.3579-15.3876s4.6672-13.7501,2.6123-20.5237"/><path class="cls-7" d="M469.9686,383.28278s.3151,22.7332,28.5519,35.5608a10.16392,10.16392,0,0,1-3.2337,9.3903s-38.8928-3.0568-44.4735-43.5966"/><g class="cls-57"><path class="cls-18" d="M447.5461,391.33668c7.7359,9.771,16.6387,18.792,27.2815,25.2765s23.1599,10.3176,35.5793,9.2804c-6.8533,6.5753-14.3037,13.4616-23.6696,15.0371-6.583,1.1074-13.3285-.5929-19.5516-3.0087a86.20906,86.20906,0,0,1-30.7401-20.4452"/></g><path class="cls-25" d="M479.0498,304.54438s5.5592-7.034,9.9088-8.7644,8.9058-1.9322,9.1837-1.1845c.5264,1.416-3.0275,2.5603-5.1058,2.8697,3.4232.1474,4.4509,1.7081,4.0321,2.4313s-4.196.0657-4.196.0657,3.1529,1.6801,2.3383,2.7535-3.9993-.9315-3.9993-.9315-2.0721,2.068-2.397,3.2962c1.6419-1.3347,2.9285-.9438,3.1898-.1165s-5.3598,4.9759-7.773,4.6408C484.2314,309.60468,482.1584,304.73488,479.0498,304.54438Z"/></g></g></g></svg>